<?xml version="1.0" encoding="UTF-8"?>
<svg id="Layer_2" xmlns="http://www.w3.org/2000/svg" viewBox="0 0 1441.67 266.74">
  <defs>
    <style>
      .cls-1 {
        fill: #fff;
      }

      .cls-2 {
        fill: #ff6f00;
      }
    </style>
  </defs>
  <g id="Layer_1-2" data-name="Layer_1">
    <g>
      <g>
        <path class="cls-1" d="M269.03,42.9h37.07l51.76,121.02,51.76-121.02h36.84v162.75h-32.64v-105.86l-43.6,105.86h-24.72l-43.84-105.86v105.86h-32.64V42.9Z"/>
        <path class="cls-1" d="M525.06,74.38c20.75,0,34.98,9.79,42.67,20.52v-18.42h32.88v129.18h-32.88v-18.89c-7.69,11.19-22.38,20.99-42.9,20.99-32.64,0-58.76-26.81-58.76-67.15s26.11-66.22,58.99-66.22ZM533.45,103.06c-17.49,0-34.04,13.06-34.04,37.54s16.55,38.47,34.04,38.47,34.28-13.52,34.28-38.01-16.32-38.01-34.28-38.01Z"/>
        <path class="cls-1" d="M661,205.65h-32.64V76.48h32.64v20.05c8.16-13.29,21.68-21.92,39.64-21.92v34.28h-8.63c-19.35,0-31.01,7.46-31.01,32.41v64.35Z"/>
        <path class="cls-1" d="M718.36,33.11h32.64v98.17l43.37-54.79h42.44l-56.89,64.82,57.36,64.35h-42.44l-43.84-55.03v55.03h-32.64V33.11Z"/>
        <path class="cls-1" d="M906.76,207.75c-37.54,0-64.82-26.12-64.82-66.69s26.58-66.69,64.82-66.69,63.66,25.42,63.66,63.89c0,4.2-.23,8.39-.93,12.59h-94.43c1.63,19.12,14.69,29.85,31.01,29.85,13.99,0,21.68-7,25.88-15.62h35.21c-7,23.78-28.45,42.67-60.39,42.67ZM875.29,128.94h61.32c-.47-17.02-13.99-27.75-30.78-27.75-15.62,0-27.98,10.03-30.54,27.75Z"/>
        <path class="cls-1" d="M995.14,103.29h-15.39v-26.81h15.39v-31.94h32.88v31.94h28.91v26.81h-28.91v62.49c0,8.63,3.5,12.36,13.76,12.36h15.16v27.51h-20.52c-24.72,0-41.27-10.49-41.27-40.1v-62.26Z"/>
        <path class="cls-1" d="M1165.12,76.48h34.74l-79.98,190.27h-34.74l27.98-64.36-51.76-125.91h36.61l33.34,90.24,33.81-90.24Z"/>
        <path class="cls-1" d="M1299.9,102.82l-56.89,76.01h57.59v26.81h-94.67v-26.35l56.43-76.01h-56.19v-26.81h93.73v26.35Z"/>
        <path class="cls-1" d="M1378.01,207.75c-37.54,0-64.82-26.12-64.82-66.69s26.58-66.69,64.82-66.69,63.66,25.42,63.66,63.89c0,4.2-.23,8.39-.93,12.59h-94.43c1.63,19.12,14.69,29.85,31.01,29.85,13.99,0,21.68-7,25.88-15.62h35.21c-7,23.78-28.45,42.67-60.39,42.67ZM1346.53,128.94h61.32c-.47-17.02-13.99-27.75-30.78-27.75-15.62,0-27.98,10.03-30.54,27.75Z"/>
      </g>
      <path class="cls-1" d="M58.74,213.65c6.08,4.48,11.98,2.61,17.41,2.64,38.66.21,77.33.05,115.99.21,7.22.03,15.54-.7,15.92,10.23.41,11.88-8.21,11.5-16.2,11.5-52.77.05-105.54.06-158.31-.03-7.29-.01-15.63.49-18.28-8.48-2.38-8.08,4.55-12.22,9.64-16.44,59.1-48.99,118.31-97.86,177.49-146.75,5.2-4.3,10.14-10.25,17.04-2.25,6.83,7.92,2.22,13.02-3.99,18.16-30.51,25.27-60.94,50.65-92.97,77.29,9.06,4.62,16.81,2.78,24.13,2.95,13.58.33,27.19-.36,40.74.27,8.44.39,21.04-4.06,20.81,11.35-.22,14.19-12.04,10.38-20.06,10.54-23.5.47-47.21,2.07-70.48-.32-26.81-2.76-42.16,12.68-58.88,29.13Z"/>
      <path class="cls-2" d="M99.67,75.66c-17.49,0-34.99.01-52.48,0-6.27,0-12.53,0-18.79-.17-6.17-.16-11.62-1.43-11.82-9.29-.22-8.75,5.68-10.22,12.49-10.26,21.41-.12,43.05-2.15,64.17.33,31,3.65,53.13-9.31,72.26-31.74-4.77-4.25-10.74-2.08-16.07-2.11-39.16-.22-78.32-.06-117.48-.18-7.68-.02-16.93,1.28-17.36-10.42C14.1-1.06,24.03.11,32.23.09c52.21-.12,104.43-.12,156.64.03,7.72.02,16.73-.67,19.92,8.7,3.02,8.86-4.72,13.1-10.15,17.62-58.6,48.71-117.29,97.33-176.05,145.85-5.59,4.62-10.94,12.81-19.24,2.58-7.79-9.6-.3-13.94,5.6-18.88,28.01-23.46,56.12-46.81,84.15-70.25,2.63-2.2,6.68-3.34,6.58-10.08Z"/>
    </g>
  </g>
</svg>