<?xml version="1.0" encoding="UTF-8"?>
<svg id="Layer_2" xmlns="http://www.w3.org/2000/svg" viewBox="0 0 1117.49 226.66">
  <defs>
    <style>
      .cls-1 {
        fill: #f29b30;
      }

      .cls-2 {
        fill: #fff;
      }
    </style>
  </defs>
  <g id="Layer_1-2" data-name="Layer_1">
    <g>
      <path class="cls-2" d="M0,168.3V2h65.12c45.58,0,78.14,30.81,78.14,81.4s-29.3,84.9-72.88,84.9H0ZM62.61,136.75c29.3,0,40.82-17.28,40.82-53.35s-11.02-49.34-43.83-49.34h-22.04v102.68h25.04Z"/>
      <path class="cls-2" d="M154.52,30.3V0h36.32v30.3h-36.32ZM154.52,168.3V45.08h36.32v123.22h-36.32Z"/>
      <path class="cls-2" d="M288.76,155.28c-4.26,8.26-16.03,14.03-31.56,14.03-41.57,0-54.6-32.31-54.6-63.36,0-37.82,21.54-64.12,53.85-64.12,15.03,0,25.55,6.01,32.81,17.78v-14.53h35.81v124.47c0,37.07-25.3,57.1-62.36,57.1s-60.11-19.79-60.11-51.59h33.56c0,12.77,9.27,20.29,25.8,20.29s26.8-9.02,26.8-23.04v-17.03ZM289.77,108.19c0-24.79-9.02-35.56-25.04-35.56s-24.54,10.52-24.54,34.56c0,22.29,10.02,33.81,24.54,33.81s25.04-11.27,25.04-32.81Z"/>
      <path class="cls-2" d="M339.35,30.3V0h36.32v30.3h-36.32ZM339.35,168.3V45.08h36.32v123.22h-36.32Z"/>
      <path class="cls-2" d="M491.38,122.22c0,26.05-14.03,49.34-50.59,49.34s-50.84-22.79-50.84-49.59V11.77h35.56v33.31h65.87v25.55h-65.87v49.84c0,12.77,4.76,19.54,16.03,19.54s16.03-6.76,16.03-19.28v-33.56h33.81v35.06Z"/>
      <path class="cls-2" d="M580.78,168.3c-1.25-2.75-2.25-6.76-2.5-10.52-6.26,8.01-18.53,13.77-36.82,13.77-28.3,0-40.82-13.52-40.82-35.56,0-32.06,24.29-38.07,57.35-43.08,14.03-2,18.03-4.76,18.03-12.52,0-7.01-8.01-10.77-18.28-10.77-13.77,0-19.03,6.26-20.29,15.53h-32.81c.5-25.55,14.53-43.33,54.85-43.33s53.1,17.53,53.1,48.59v77.89h-31.81ZM576.53,110.45c-2.76,2.5-7.51,4.01-18.03,6.26-17.28,3.76-22.29,8.52-22.29,17.28,0,7.76,4.76,11.77,13.27,11.77,17.53,0,26.55-12.02,26.8-24.79l.25-10.52Z"/>
      <path class="cls-2" d="M626.36,168.3V0h36.31v168.3h-36.31Z"/>
      <path class="cls-2" d="M675.95,168.3V0h36.31v168.3h-36.31Z"/>
      <path class="cls-2" d="M997.02,226.66V45.08h34.81l.25,14.53c7.26-12.27,19.28-17.78,32.06-17.78,31.06,0,53.35,25.04,53.35,66.37,0,36.57-18.28,63.36-50.09,63.36-14.78,0-27.05-5.26-34.81-18.28v73.38h-35.56ZM1080.67,105.94c0-22.29-9.77-34.56-24.54-34.56s-24.79,12.02-24.79,33.56c0,24.79,9.02,35.81,24.79,35.81s24.54-10.77,24.54-34.81Z"/>
      <path class="cls-1" d="M940.94,42.45c-7.04.37-14.02.19-20.82,1.19-16.53,2.43-29.59,11.09-39.9,24.01-18.5,23.18-37.07,46.32-55.35,69.68-12.66,16.18-28.82,24.83-49.48,24.46-29.34-.52-53.5-24.03-55.75-54.12-2.15-28.73,18.79-55.59,47.12-60.51,17.08-2.97,32.5.77,46.2,11.38,7.03,5.45,13.96,11.03,20.93,16.56-.02.57-.04,1.13-.06,1.7-4.7.97-9.36,2.35-14.11,2.83-8.43.85-16.38-.22-23.79-5.33-12.15-8.38-28.09-7.27-40.26,1.96-11.47,8.71-16.27,23.79-12.01,37.74,4.53,14.86,16.4,24.14,31.55,25.09,12.65.8,22.48-4.14,30.21-13.88,18.44-23.23,36.97-46.4,55.33-69.7,12.24-15.54,27.98-23.94,47.86-24,11.29-.03,24.47,4.6,32.33,10.94Z"/>
      <path class="cls-1" d="M768.6,170.31c6.92-.38,13.9-.24,20.72-1.23,16.37-2.39,29.35-10.92,39.58-23.69,19.12-23.88,38.08-47.88,57.16-71.79,23.81-29.84,67-30.38,90.97-1.19,17.8,21.68,16.97,53.82-1.93,74.9-18.9,21.09-50.85,25.61-74.15,10.02-8.82-5.9-16.91-12.9-26.61-20.38,4.38-1.43,7.5-2.96,10.77-3.41,10.44-1.45,20.27-.78,29.63,5.6,11.69,7.96,27.73,6.19,39.4-2.97,11.16-8.75,15.79-23.79,11.56-37.5-4.45-14.41-15.89-23.68-30.22-24.95-13.56-1.2-23.91,4.06-32.19,14.56-18.45,23.42-37.03,46.74-55.62,70.06-12.01,15.07-27.68,22.84-46.98,22.89-11.32.03-24.98-4.81-32.1-10.92Z"/>
    </g>
  </g>
</svg>