<svg id="Layer_1" enable-background="new 0 0 512 512" height="512" viewBox="0 0 512 512" width="512" xmlns="http://www.w3.org/2000/svg"><path d="m290.416 276.475c0 23.75-18.663 43.595-43.302 47.953l.318 13.165c.134 5.521-4.234 10.105-9.756 10.239-.082.002-.164.003-.246.003-5.41 0-9.86-4.319-9.992-9.758l-.326-13.5c-14.973-2.38-24.427-10.167-33.448-18.68-4.018-3.79-4.201-10.119-.411-14.136 3.789-4.017 10.119-4.202 14.136-.411 10.44 9.85 16.851 13.968 29.53 13.968 18.471 0 33.497-12.939 33.497-28.843s-15.026-28.842-33.497-28.842c-29.498 0-53.497-21.911-53.497-48.842 0-23.759 18.679-43.611 43.332-47.958l-.349-14.59c-.132-5.521 4.236-10.104 9.758-10.236 5.501-.145 10.104 4.236 10.236 9.758l.368 15.367c13.244 2.822 30.031 10.522 37.097 21.273 3.033 4.616 1.751 10.816-2.864 13.849-4.617 3.033-10.816 1.75-13.849-2.865-3.963-6.029-20.633-13.44-30.232-13.441-18.471 0-33.497 12.939-33.497 28.843s15.026 28.842 33.497 28.842c29.498 0 53.497 21.91 53.497 48.842zm221.584 187.543c0 2.652-1.054 5.196-2.929 7.071l-37.982 37.982c-1.953 1.953-4.512 2.929-7.071 2.929s-5.118-.976-7.071-2.929l-56.731-56.731-19.088 35.359c-1.883 3.487-5.652 5.538-9.596 5.218-3.949-.315-7.341-2.933-8.646-6.674l-14.108-40.436c-34.264 18.372-72.681 28.031-111.858 28.031-63.283 0-122.779-24.644-167.527-69.392s-69.393-104.244-69.393-167.528 24.644-122.778 69.392-167.526 104.244-69.392 167.527-69.392 122.778 24.644 167.526 69.392c44.749 44.748 69.393 104.243 69.393 167.526 0 39.176-9.66 77.593-28.032 111.859l40.437 14.108c3.741 1.305 6.359 4.696 6.675 8.646.314 3.95-1.731 7.713-5.218 9.596l-35.359 19.088 56.731 56.731c1.874 1.876 2.928 4.419 2.928 7.072zm-169.901-37.354-14.755-42.292c-27.156 16.717-58.153 25.495-90.424 25.495-95.364 0-172.948-77.584-172.948-172.948s77.583-172.948 172.947-172.948 172.948 77.584 172.948 172.948c0 32.271-8.778 63.269-25.496 90.425l42.291 14.755c17.8-32.057 27.176-68.246 27.176-105.18 0-119.61-97.31-216.919-216.919-216.919s-216.919 97.309-216.919 216.918 97.31 216.919 216.919 216.919c36.935 0 73.123-9.375 105.18-27.173zm-36.118-120.683c2.714-2.713 6.74-3.636 10.365-2.371l48.626 16.965c16.306-24.875 24.895-53.64 24.895-83.657 0-84.335-68.612-152.948-152.948-152.948s-152.948 68.613-152.948 152.948c0 84.336 68.612 152.948 152.948 152.948 30.017 0 58.782-8.588 83.656-24.894l-16.965-48.626c-1.263-3.623-.342-7.651 2.371-10.365zm181.876 158.037-59.153-59.153c-2.233-2.234-3.28-5.392-2.823-8.518s2.364-5.852 5.144-7.353l27.22-14.694-128.925-44.98 44.98 128.925 14.693-27.219c1.501-2.78 4.227-4.687 7.353-5.145.483-.07.967-.105 1.448-.105 2.632 0 5.182 1.04 7.07 2.929l59.153 59.154z"/></svg>