<?xml version="1.0" encoding="UTF-8"?>
<svg id="Layer_2" xmlns="http://www.w3.org/2000/svg" viewBox="0 0 1160.41 279.37">
  <defs>
    <style>
      .cls-1 {
        fill: #fff;
      }

      .cls-2 {
        fill: #b2b2b2;
      }
    </style>
  </defs>
  <g id="Layer_1-2" data-name="Layer_1">
    <g>
      <g>
        <path class="cls-1" d="M60.54,210.74H0V70.35h57.93c29.37,0,45.66,15.29,45.66,36.21,0,17.1-10.26,27.76-23.94,32.18,15.89,2.82,27.15,17.5,27.15,33.99,0,22.33-17.1,38.02-46.26,38.02ZM53.91,93.08h-25.75v35.2h25.75c13.28,0,20.92-6.03,20.92-17.5s-7.64-17.7-20.92-17.7ZM55.92,150h-27.76v37.82h28.36c13.68,0,21.72-6.64,21.72-18.51s-8.65-19.31-22.33-19.31Z"/>
        <path class="cls-1" d="M151.05,210.74h-28.16v-111.43h28.16v17.3c7.04-11.47,18.71-18.91,34.19-18.91v29.57h-7.44c-16.69,0-26.75,6.44-26.75,27.96v55.51Z"/>
        <path class="cls-1" d="M241.37,97.5c17.9,0,30.17,8.45,36.81,17.7v-15.89h28.36v111.43h-28.36v-16.29c-6.64,9.65-19.31,18.1-37.01,18.1-28.16,0-50.69-23.13-50.69-57.93s22.53-57.12,50.89-57.12ZM248.61,122.24c-15.09,0-29.37,11.26-29.37,32.38s14.28,33.19,29.37,33.19,29.57-11.67,29.57-32.79-14.08-32.79-29.57-32.79Z"/>
        <path class="cls-1" d="M405.69,149.2c0-17.9-9.86-27.56-24.74-27.56s-25.14,9.65-25.14,27.56v61.55h-28.16v-111.43h28.16v13.88c7.24-9.45,19.31-15.49,33.59-15.49,25.95,0,44.45,16.9,44.45,47.67v65.37h-28.16v-61.55Z"/>
        <path class="cls-1" d="M498.02,97.5c14.68,0,28.76,6.84,36.41,17.3v-52.9h28.56v148.84h-28.56v-16.49c-6.64,10.26-19.11,18.3-36.61,18.3-28.36,0-50.89-23.13-50.89-57.93s22.53-57.12,51.09-57.12ZM505.06,122.24c-15.09,0-29.37,11.26-29.37,32.38s14.28,33.19,29.37,33.19,29.57-11.67,29.57-32.79-14.08-32.79-29.57-32.79Z"/>
      </g>
      <g>
        <path class="cls-1" d="M668.5,261.68c-1.61,1.34-3.52,2.75-5.73,4.22-2.21,1.48-4.46,2.85-6.74,4.12-2.28,1.27-4.53,2.38-6.74,3.32-2.21.94-4.12,1.61-5.73,2.01-3.76,1.21-7.91,1.81-12.47,1.81-2.41,0-4.63-.2-6.64-.6-2.82-.4-5.03-.77-6.64-1.11-1.61-.34-3.05-.8-4.32-1.41-1.28-.6-2.51-1.41-3.72-2.41s-2.82-2.38-4.83-4.12c-1.75-1.61-3.12-2.92-4.12-3.92s-1.91-1.98-2.71-2.92c-.8-.94-1.54-2.01-2.21-3.22-.67-1.21-1.48-2.68-2.41-4.42-2.55-4.69-4.53-9.35-5.93-13.98-1.41-4.63-2.45-9.69-3.12-15.19-.4-3.62-.6-7.54-.6-11.77s.17-8.18.5-11.87c.34-3.69.8-6.74,1.41-9.15.6-2.41,1.31-3.62,2.11-3.62.67,0,1.01-.53,1.01-1.61,0-1.21.33-2.14,1.01-2.82.67-.67.87-1.07.6-1.21-.14-.13.13-1.47.8-4.02.67-2.55,1.54-5.56,2.61-9.05.94-3.22,1.64-5.7,2.11-7.44.47-1.74.77-3.05.9-3.92.13-.87.13-1.44,0-1.71-.13-.27-.4-.53-.8-.8-.54-.4-1.17-1.07-1.91-2.01-.74-.94-1.51-2.08-2.31-3.42-.8-1.34-1.51-2.68-2.11-4.02-.6-1.34-1.11-2.61-1.51-3.82-.67-2.55-1.04-5.83-1.11-9.86-.07-4.02.23-8.11.91-12.27.27-1.47.67-3.38,1.21-5.73.53-2.34,1.17-4.76,1.91-7.24.74-2.48,1.47-4.83,2.21-7.04.74-2.21,1.37-3.92,1.91-5.13,2.41-5.23,4.36-9.22,5.83-11.97,1.47-2.75,2.61-4.59,3.42-5.53.53-.53,1.04-1.17,1.51-1.91.47-.74.77-1.31.9-1.71.13-.67.5-1.61,1.11-2.82.6-1.21,1.31-2.51,2.11-3.92.8-1.41,1.64-2.75,2.51-4.02.87-1.27,1.57-2.24,2.11-2.92,1.34-1.34,2.14-2.68,2.41-4.02.27-1.07.74-1.61,1.41-1.61.54,0,.87.1,1.01.3.13.2.03.67-.3,1.41-.34.74-.97,1.84-1.91,3.32-.94,1.48-2.28,3.42-4.02,5.83-.67,1.07-1.51,2.45-2.52,4.12-1,1.68-1.91,3.25-2.71,4.73-.67,1.48-1.31,2.75-1.91,3.82-.6,1.08-1.04,1.68-1.31,1.81-.4.27-1.11,1.48-2.11,3.62-1.01,2.15-2.11,4.59-3.32,7.34-1.21,2.75-2.35,5.5-3.42,8.25-1.07,2.75-1.81,4.8-2.21,6.13-.27,1.34,0,1.48.8.4.4-.67.67-.97.8-.91.13.07.33.5.6,1.31.27,1.21.07,2.68-.6,4.43-.27.67-.54,1.38-.8,2.11-.27.74-.4,1.24-.4,1.51-.67,3.49-1.28,5.23-1.81,5.23s-.8-.87-.8-2.61c-.13-1.34-.2-2.04-.2-2.11s-.13.24-.4.91c-.4,1.21-.74,2.68-1,4.42-.27,1.74-.44,3.55-.5,5.43-.07,1.88-.1,3.69-.1,5.43s.13,3.15.4,4.22c.27,1.08.6,2.25,1.01,3.52.4,1.28.9,2.51,1.51,3.72s1.21,2.25,1.81,3.12c.6.87,1.11,1.51,1.51,1.91.54.4.84.44.91.1.07-.33-.04-1.37-.3-3.12-.27-1.61-.37-2.68-.3-3.22.07-.53.37-1.01.9-1.41.94-.4,1.07-.8.4-1.21-.67-.27-1.01-1.01-1.01-2.21.27-2.14.27-4.29,0-6.44-.27-2.14-.54-3.22-.8-3.22-.54.27-.67.74-.4,1.41.27.54.2.94-.2,1.21-.27.54-.4,1.08-.4,1.61-.13,1.88-.27,3.05-.4,3.52-.13.47-.34.57-.6.3-.27-.13-.44-.7-.5-1.71-.07-1.01-.07-2.14,0-3.42.07-1.27.2-2.45.4-3.52.2-1.07.43-1.74.7-2.01.4-.4.6-1.07.6-2.01,0-1.21.33-2.98,1.01-5.33.67-2.34,1.51-4.89,2.51-7.64,1.01-2.75,2.01-5.36,3.02-7.84,1.01-2.48,1.78-4.39,2.31-5.73.53-1.07,1.11-2.28,1.71-3.62.6-1.34,1.11-2.48,1.51-3.42.4-.94,1.14-2.38,2.21-4.33,1.07-1.94,2.21-3.95,3.42-6.03,1.21-2.08,2.38-4.05,3.52-5.93,1.14-1.88,1.98-3.22,2.51-4.02.8-1.07,1.74-2.38,2.82-3.92,1.07-1.54,2.08-3.05,3.02-4.53.94-1.47,1.71-2.78,2.31-3.92.6-1.14.91-1.84.91-2.11,0-.67.33-1.34,1-2.01.67-.53.74-1.27.2-2.21-.27-.27-.4-.54-.4-.8s.13-.27.4,0c.4.13,1.41-.6,3.02-2.21,1.47-1.47,2.08-2.21,1.81-2.21-.13,0-.57.2-1.31.6-.74.4-1.54.91-2.41,1.51-.88.6-1.68,1.21-2.41,1.81-.74.6-1.31,1.11-1.71,1.51-.27.4-.6.7-1,.91-.4.2-.67.3-.8.3-.27-.27-.74-.07-1.41.6-.67.94-1.18,1.31-1.51,1.11-.34-.2-.17-.84.5-1.91.8-1.21,1.74-2.44,2.82-3.72,1.07-1.27,2.18-2.48,3.32-3.62,1.14-1.14,2.21-2.11,3.22-2.92,1.01-.8,1.78-1.27,2.31-1.41.67-.13,1.67-.7,3.02-1.71,1.34-1.01,2.82-2.24,4.42-3.72,6.17-5.76,9.59-8.65,10.26-8.65.13,0,.54-.23,1.21-.7.67-.47,1.41-1.04,2.21-1.71.8-.67,2.18-1.64,4.12-2.92,1.94-1.27,3.85-2.45,5.73-3.52,2.01-1.07,4.05-2.21,6.13-3.42,2.08-1.21,3.65-2.14,4.73-2.82,2.14-1.34,4.73-2.55,7.74-3.62,3.02-1.07,6.27-2.01,9.75-2.82,3.49-.8,7.04-1.44,10.66-1.91,3.62-.47,7.11-.7,10.46-.7,3.62,0,6.97.34,10.06,1.01,1.21.27,2.68.74,4.42,1.41,1.74.67,3.59,1.41,5.53,2.21,1.94.8,3.75,1.61,5.43,2.41,1.67.8,2.98,1.54,3.92,2.21,1.07.67,2.28,1.68,3.62,3.02,1.34,1.34,2.68,2.82,4.02,4.42,1.34,1.61,2.65,3.29,3.92,5.03,1.27,1.74,2.31,3.42,3.12,5.03,1.61,2.95,3.02,6.47,4.22,10.56,1.21,4.09,2.14,8.45,2.82,13.07.67,4.63,1.04,9.42,1.11,14.38.07,4.96-.17,9.86-.7,14.68-1.21,10.46-3.19,20.92-5.93,31.38-2.75,10.46-6.47,21.59-11.16,33.39-.94,2.55-2.05,5.26-3.32,8.15-1.28,2.88-2.48,5.57-3.62,8.05-1.14,2.48-2.15,4.59-3.02,6.34-.87,1.74-1.44,2.75-1.71,3.02-.27.13-.44.27-.5.4-.07.13.03.13.3,0,.13,0-.14.7-.8,2.11-.67,1.41-1.44,2.99-2.31,4.73-.87,1.74-1.71,3.35-2.51,4.83-.8,1.48-1.34,2.21-1.61,2.21-.4,0-.6.34-.6,1.01,0,.4-.3,1.18-.91,2.31-.6,1.14-1.24,2.31-1.91,3.52-.67,1.21-1.34,2.31-2.01,3.32-.67,1-1.14,1.51-1.41,1.51-.4,0-.6.34-.6,1.01s-.2,1.01-.6,1.01c-.27,0-.67.44-1.21,1.31-.54.87-1.07,1.91-1.61,3.12-.67,1.21-1.24,2.21-1.71,3.02-.47.8-.84,1.14-1.11,1.01-.54-.27-.6.13-.2,1.21.27.94.1,1.78-.5,2.51-.6.74-1.24.97-1.91.7h-.2c-.27,0-.7.37-1.31,1.11-.6.74-1.21,1.54-1.81,2.41-.6.87-1.11,1.74-1.51,2.62-.4.87-.54,1.44-.4,1.71.27.4-.67,1.98-2.82,4.73-2.15,2.75-5.9,7.21-11.26,13.38-2.95,3.35-5.33,6.03-7.14,8.05-1.81,2.01-3.25,3.59-4.33,4.73-1.08,1.14-1.88,1.88-2.41,2.21-.54.34-1.01.5-1.41.5-.94-.13-1.41.34-1.41,1.41,0,.94-.34,1.74-1.01,2.41-.27.27-1.11.94-2.51,2.01-1.41,1.08-2.92,2.35-4.53,3.82ZM588.04,195.3c.27-.8.47-1.61.6-2.41.13-.8.2-1.34.2-1.61,0-1.47-.2-1.71-.6-.7s-.74,2.31-1.01,3.92l-.2,3.42,1.01-2.62ZM590.06,230.91c.13,0,.2-1.21.2-3.62s-.07-5.3-.2-8.65c0-3.22.03-6.07.1-8.55.07-2.48.23-4.93.5-7.34.27-2.41.67-4.96,1.21-7.64.53-2.68,1.21-5.83,2.01-9.45.4-1.61.91-3.52,1.51-5.73.6-2.21,1.24-4.49,1.91-6.84.67-2.34,1.37-4.59,2.11-6.74.74-2.14,1.44-4.02,2.11-5.63.27-.94,0-1.47-.8-1.61-.4,0-.84.5-1.31,1.51-.47,1-1.11,2.85-1.91,5.53-2.41,7.51-4.36,14.92-5.83,22.23-1.48,7.31-2.41,14.11-2.82,20.42,0,1.48.03,3.45.1,5.93.07,2.48.13,4.93.2,7.34.07,2.41.2,4.49.4,6.24.2,1.74.37,2.61.5,2.61ZM593.68,106.6c-.27,0-.67.7-1.21,2.11-.54,1.41-.8,2.51-.8,3.32,0,1.34.53.47,1.61-2.61.53-1.88.67-2.82.4-2.82ZM595.69,192.09c0-.94.07-1.84.2-2.71.13-.87.33-1.44.6-1.71.27-.27.6-1.11,1.01-2.51s.87-2.92,1.41-4.53c.53-1.61.97-3.18,1.31-4.73.33-1.54.5-2.51.5-2.92-.14-.4-.14-.87,0-1.41.13-.53.33-1.01.6-1.41.8-1.47,1.54-3.18,2.21-5.13.67-1.94.87-3.05.6-3.32-.54,0-1.34,1.41-2.41,4.22-1.08,2.82-2.08,5.97-3.02,9.45-.94,3.62-1.78,6.91-2.51,9.86-.74,2.95-1.38,5.73-1.91,8.35-.54,2.61-.94,5.13-1.21,7.54-.27,2.41-.47,4.9-.6,7.44l-.2,5.63.8-5.83c.27-1.61.53-3.28.8-5.03.27-1.74.54-3.15.8-4.22.27-.94.47-2.08.6-3.42.13-1.34.27-2.54.4-3.62ZM592.67,217.23c.27-.54.27-.94,0-1.21-.27-.27-.4,0-.4.8,0,1.07.13,1.21.4.4ZM595.49,243.78c.27-.67.2-1.14-.2-1.41-.27-.27-.4,0-.4.8.13.67.33.87.6.6ZM601.12,107c-.67,1.34-1.01,2.48-1.01,3.42,0,.27.1.24.3-.1.2-.33.43-.84.71-1.51.67-1.74,1.01-2.88,1.01-3.42,0-.27-.1-.23-.3.1-.2.34-.44.84-.7,1.51ZM603.93,120.48c-.14.4-.4,1.38-.8,2.92-.4,1.54-.8,3.22-1.21,5.03-.4,1.81-.74,3.52-1.01,5.13-.27,1.61-.4,2.62-.4,3.02.13.94.37.8.7-.4.33-1.21.84-3.49,1.51-6.84.4-1.88.77-3.69,1.11-5.43.33-1.74.5-2.82.5-3.22.13-.94.17-1.41.1-1.41s-.24.4-.5,1.21ZM612.18,263.29c2.14,1.74,5.09,2.62,8.85,2.62s7.88-.8,11.97-2.41c4.09-1.61,8.08-3.65,11.97-6.13,3.89-2.48,7.51-5.19,10.86-8.15,3.35-2.95,6.23-5.83,8.65-8.65.67-.67,1.27-1.24,1.81-1.71.53-.47.94-.63,1.21-.5.13.13.6-.17,1.41-.91.8-.74,1.74-1.71,2.82-2.92,1.07-1.07,2.41-2.48,4.02-4.22,1.61-1.74,3.02-3.28,4.22-4.63,1.61-1.61,3.48-3.75,5.63-6.44,2.14-2.68,4.46-5.66,6.94-8.95,2.48-3.28,4.99-6.77,7.54-10.46,2.54-3.69,4.96-7.34,7.24-10.96,1.61-2.41,3.65-5.87,6.13-10.36,2.48-4.49,4.99-9.18,7.54-14.08,2.55-4.89,4.86-9.55,6.94-13.98,2.08-4.42,3.59-7.84,4.53-10.26.67-1.61,1.41-3.32,2.21-5.13s1.54-3.49,2.21-5.03c.67-1.54,1.27-2.78,1.81-3.72.53-.94.87-1.41,1.01-1.41.27.27.13.87-.4,1.81-.67.94-.8,1.54-.4,1.81,0,.14.13.04.4-.3.27-.33.53-.84.8-1.51.67-1.61.8-2.48.4-2.62-.4-.27-.54-1.11-.4-2.51.13-1.41.47-2.45,1-3.12.13-.27.3-.67.5-1.21.2-.53.37-1.14.5-1.81.27-1.34.63-2.24,1.11-2.72s.77-.17.91.91c0,.27.07.3.2.1.13-.2.33-.63.6-1.31.67-1.47,1.01-2.61,1.01-3.42s-.27-.53-.8.8c-.4.94-.67,1.41-.8,1.41-.27,0-.27-.84,0-2.51.27-1.67.74-3.85,1.41-6.54.67-2.14,1.34-4.96,2.01-8.45.67-3.49,1.21-6.57,1.61-9.25.53-2.68,1.01-5.3,1.41-7.84.4-2.55.74-4.29,1-5.23.13-.94.23-1.81.3-2.61.07-.8.03-1.34-.1-1.61-.4-.4-.34-.87.2-1.41.27-.13.67.27,1.21,1.21.27.67.43,1.04.5,1.11.07.07.23-.23.5-.91.27-.53.43-1.37.5-2.51.07-1.14.1-2.31.1-3.52s-.07-2.24-.2-3.12c-.13-.87-.34-1.24-.6-1.11-.27.13-.44.5-.5,1.11-.07.6-.1,1.24-.1,1.91,0,1.61-.2,2.75-.6,3.42-.54.8-.8,1.08-.8.8,0-7.78-.4-14.88-1.21-21.32-.8-6.44-2.89-13.21-6.24-20.32-2.28-4.69-5.7-8.31-10.26-10.86-4.56-2.55-9.99-3.82-16.29-3.82-1.74,0-3.82.13-6.23.4-2.41.27-4.83.64-7.24,1.11-2.41.47-4.76,1.04-7.04,1.71-2.28.67-4.22,1.34-5.83,2.01-3.35,1.34-5.97,2.48-7.85,3.42-1.88.94-2.48,1.41-1.81,1.41,1.07.27,1.81.47,2.21.6.54.27.8.54.8.8s-.34.74-1.01,1.41c-.67.67-.9,1.08-.7,1.21.2.14,1.11.14,2.71,0,1.34,0,2.28.1,2.82.3.53.2,1.07.64,1.61,1.31.4.54.63.97.7,1.31.07.34-.07.8-.4,1.41-.34.6-.94,1.44-1.81,2.51-.87,1.08-2.18,2.62-3.92,4.63-.94,1.08-2.25,2.72-3.92,4.93-1.68,2.21-3.25,4.33-4.73,6.34-1.48,1.88-2.75,3.55-3.82,5.03-1.07,1.48-1.68,2.28-1.81,2.41-.14.13-.44.54-.91,1.21-.47.67-.97,1.41-1.51,2.21-.54.8-1.28,1.84-2.21,3.12-.94,1.28-1.81,2.45-2.62,3.52-1.34,1.74-2.65,3.55-3.92,5.43-1.28,1.88-2.71,4.16-4.32,6.84-.4.67-1.11,1.78-2.11,3.32-1,1.54-2.05,3.12-3.12,4.73-1.07,1.61-2.18,3.39-3.32,5.33-1.14,1.95-2.04,3.45-2.71,4.53-2.82,5.23-5.1,9.52-6.84,12.87-1.74,3.35-3.12,6.03-4.12,8.05-1.01,2.01-1.64,3.42-1.91,4.22-.27.8-.34,1.28-.2,1.41.53.27-.13,2.28-2.01,6.03-.8,1.61-1.78,3.69-2.92,6.24-1.14,2.55-2.11,4.83-2.92,6.84-.14.4-.57,1.38-1.31,2.92-.74,1.54-1.51,3.19-2.31,4.93-.8,1.74-1.51,3.35-2.11,4.83-.6,1.48-.91,2.35-.91,2.62.27.13,1.37.03,3.32-.3,1.94-.33,4.19-.87,6.74-1.61,2.55-.74,5.23-1.57,8.05-2.51,2.82-.94,5.29-1.88,7.44-2.82,4.02-1.88,7.98-3.75,11.87-5.63,3.89-1.88,7.64-4.02,11.26-6.44,1.61-.94,3.45-2.08,5.53-3.42,2.08-1.34,4.12-2.68,6.13-4.02,2.01-1.34,3.89-2.62,5.63-3.82,1.74-1.21,3.08-2.21,4.02-3.02,2.01-1.74,3.55-2.55,4.63-2.41.8.27,1.31.67,1.51,1.21.2.54-.03,1.01-.7,1.41-.54.27-.74.64-.6,1.11.13.47.53.64,1.21.5.67,0,.87.27.6.8-.14.4,0,.6.4.6.67,0,.87.67.6,2.01-.27,1.34-.94,2.75-2.01,4.22-.67.8-1.38,1.71-2.11,2.72-.74,1.01-1.31,1.84-1.71,2.51-.4.54-1.21,1.44-2.41,2.72-1.21,1.28-2.51,2.55-3.92,3.82-1.41,1.28-2.68,2.38-3.82,3.32-1.14.94-1.84,1.41-2.11,1.41-.4,0-.6.27-.6.8,0,.27-.47.77-1.41,1.51-.94.74-2.01,1.51-3.22,2.31-1.21.8-2.35,1.51-3.42,2.11-1.08.6-1.81.91-2.21.91-.4.13-.84.34-1.31.6-.47.27-.97.54-1.51.8-.94.94-3.05,2.05-6.34,3.32-3.29,1.28-6.91,2.51-10.86,3.72-3.96,1.21-7.78,2.25-11.46,3.12-3.69.87-6.4,1.31-8.15,1.31-1.08,0-1.61-.2-1.61-.6,0-.53-.27-.53-.8,0-.67.4-2.28.34-4.83-.2-2.01-.4-3.49-.6-4.42-.6-1.08,0-1.84.47-2.31,1.41-.47.94-1.17,2.88-2.11,5.83-1.48,4.7-2.88,9.75-4.22,15.19-1.34,5.43-2.41,10.29-3.22,14.58-.4,2.55-.67,5.4-.8,8.55-.14,3.15-.14,7.74,0,13.78,0,3.62.03,6.51.1,8.65.07,2.15.17,3.99.3,5.53.13,1.54.33,2.85.6,3.92.27,1.08.6,2.28,1.01,3.62,1.07,3.62,2.48,7.14,4.22,10.56,1.74,3.42,3.29,5.73,4.63,6.94ZM607.35,93.53c-.13,0-.47.44-1.01,1.31-.54.87-1.07,1.84-1.61,2.92-.54,1.07-1.01,2.08-1.41,3.02-.4.94-.6,1.54-.6,1.81.13,1.08.87.13,2.21-2.82.4-.94.8-1.84,1.21-2.71.4-.87.74-1.51,1.01-1.91.27-.94.33-1.47.2-1.61ZM612.38,96.14c-1.61,3.49-2.62,5.9-3.02,7.24-.4,1.34-.4,2.01,0,2.01h.6c.4,0,.4.6,0,1.81s-1.34,4.29-2.82,9.25c-.94,2.68-1.74,5.47-2.41,8.35-.67,2.88-1.14,5-1.41,6.34-.14,1.21-.24,2.65-.3,4.32-.07,1.68-.1,3.22-.1,4.63s.03,2.48.1,3.22c.07.74.17.77.3.1.27-1.07.6-1.81,1.01-2.21.13-.13.27-.53.4-1.21.13-.67.33-1.34.6-2.01.27-1.61.8-2.68,1.61-3.22.94-.53,1.41-1.07,1.41-1.61,0-.8.27-1.21.8-1.21s.67-.4.4-1.21c0-.53.13-1.47.4-2.82l.6-1.61-1.41,1.61c-.4.54-.87,1.31-1.41,2.31-.54,1.01-1.07,1.98-1.61,2.92-.94,2.15-1.51,3.35-1.71,3.62-.2.27-.44.27-.7,0-.4-.4-.14-1.88.8-4.42.94-2.55,2.28-5.76,4.02-9.66,1.74-3.89,3.85-8.28,6.34-13.17,2.48-4.89,5.13-9.82,7.95-14.78,3.48-6.3,6.8-12.07,9.96-17.3,3.15-5.23,6.3-10.26,9.45-15.08,3.15-4.83,6.4-9.52,9.75-14.08,3.35-4.56,6.91-9.32,10.66-14.28,2.41-3.22,4.02-5.36,4.83-6.44.8-1.07,1.14-1.61,1.01-1.61-.54.27-1.64,1.07-3.32,2.41-1.68,1.34-3.59,2.88-5.73,4.63-2.01,1.74-4.02,3.42-6.03,5.03-2.01,1.61-3.42,2.75-4.22,3.42-.8.67-1.61,1.38-2.41,2.11-.8.74-1.34,1.38-1.61,1.91-.27.67-1.01,1.74-2.21,3.22-1.21,1.48-2.55,3.02-4.02,4.63-1.34,1.48-2.51,2.82-3.52,4.02s-1.51,1.95-1.51,2.21c0,.4-.47,1.07-1.41,2.01-.54.4-1.28,1.24-2.21,2.51-.94,1.28-1.95,2.75-3.02,4.42-1.08,1.68-2.18,3.49-3.32,5.43-1.14,1.95-2.18,3.72-3.12,5.33-.8,1.48-1.54,2.78-2.21,3.92-.67,1.14-1.07,1.78-1.21,1.91-.27.27-.77,1.18-1.51,2.72-.74,1.54-1.91,4.32-3.52,8.35ZM617.01,122.69c.94-2.14,1.68-3.69,2.21-4.63.54-.53.94-1.41,1.21-2.61.27-.4.57-1.01.91-1.81.33-.8.63-1.54.91-2.21.94-1.47,1.41-2.54,1.41-3.22,0-.4.13-.74.4-1.01.27-.13.6-.5,1-1.11.4-.6.8-1.27,1.21-2.01.4-.74.74-1.44,1.01-2.11.27-.67.4-1.14.4-1.41,0-.67-.34-.77-1-.3-.67.47-1.34,1.24-2.01,2.31-.67,1.48-1.28,2.08-1.81,1.81-.27-.13-.71.24-1.31,1.11-.6.87-1.24,2.05-1.91,3.52-1.21,2.28-2.01,3.82-2.41,4.63s-.54,1.21-.4,1.21l.2-.2c.13,0,.33-.13.6-.4.54-.4.84-.57.91-.5.07.07-.1.5-.5,1.31-.67,1.07-1.28,1.54-1.81,1.41-.54-.27-1.08.34-1.61,1.81-.4,1.48-.34,2.21.2,2.21.53.27-.27,2.88-2.41,7.84-3.09,6.84-5.26,11.97-6.54,15.39-1.28,3.42-1.78,5.46-1.51,6.13.13.67.33.8.6.4.27-.4.74-1.41,1.41-3.02.4-1.07.87-2.18,1.41-3.32.54-1.14.94-2.04,1.21-2.72.4-.94,1.37-3.12,2.92-6.54,1.54-3.42,3.25-7.41,5.13-11.97ZM604.54,117.67c.13.67.27.8.4.4.13-.53.13-1.01,0-1.41-.27-.27-.4.07-.4,1.01ZM605.94,113.24c0,.4.03.6.1.6.07,0,.23-.27.5-.8.4-.67.6-1.47.6-2.41v-1.21l-.6,1.21c-.4.8-.6,1.68-.6,2.62ZM615,136.37c.67-1.88,1.37-3.92,2.11-6.13.73-2.21,1.04-3.45.9-3.72-.13-.13-.37.07-.7.6-.34.54-.64,1.14-.91,1.81-.27.67-.6,1.48-1,2.41-.4.94-.74,1.74-1.01,2.41-.67,1.48-1.44,3.29-2.31,5.43-.87,2.15-1.71,4.19-2.51,6.13-.8,1.95-1.44,3.62-1.91,5.03-.47,1.41-.64,2.18-.5,2.31.67.8,1.41,0,2.21-2.41.27-.53.6-1.37,1.01-2.51.4-1.14.9-2.38,1.51-3.72.6-1.34,1.17-2.72,1.71-4.12.53-1.41,1.01-2.58,1.41-3.52ZM612.38,119.07c0,.54.1.77.3.7.2-.07.43-.43.71-1.11.27-.67.13-.87-.4-.6-.4.4-.6.74-.6,1.01ZM632.5,90.11c.53-.8.67-1.21.4-1.21s-.67.4-1.21,1.21c-.4.94-.47,1.41-.2,1.41s.6-.47,1.01-1.41ZM632.5,53.3c-.67.67-.87,1-.6,1,.13,0,.3-.1.5-.3s.43-.43.7-.7c.8-.8,1.01-1.21.6-1.21-.27,0-.67.4-1.21,1.21ZM637.32,48.07c-.94,1.21-1.34,1.81-1.21,1.81.27,0,1.01-.6,2.21-1.81,1.21-1.21,2.51-2.55,3.92-4.02,1.41-1.47,2.65-2.85,3.72-4.12,1.07-1.27,1.61-2.04,1.61-2.31-.4,0-1.71,1.11-3.92,3.32-2.21,2.21-4.33,4.59-6.34,7.14ZM671.72,23.73c-1.08.54-1.74.87-2.01,1.01-.27.13-.14.2.4.2.4,0,1.07-.33,2.01-1.01.67-.53.97-.8.91-.8s-.5.2-1.31.6ZM691.83,220.25c1.21-1.61,2.18-2.98,2.92-4.12.74-1.14,1.04-1.71.9-1.71-.54.27-1.48,1.41-2.82,3.42-.67.8-1.64,2.08-2.92,3.82-1.28,1.74-2.58,3.35-3.92,4.83-1.21,1.48-2.25,2.78-3.12,3.92-.87,1.14-1.31,1.78-1.31,1.91.27,0,.74-.37,1.41-1.11.67-.74,1.47-1.67,2.41-2.82.94-1.14,1.98-2.45,3.12-3.92,1.14-1.47,2.24-2.88,3.32-4.22ZM696.86,213.41c.4-.27.6-.53.6-.8l-.2-.2h-.4c-.54,0-.8.2-.8.6,0,.54.27.67.8.4ZM726.63,163.32c-.54.67-.84,1.01-.91,1.01s.03-.47.3-1.41c.27-.4.47-.84.6-1.31.13-.47.33-.77.6-.9.13-.27.27-.6.4-1.01.13-.4.2-.87.2-1.41,0-.4-.07-.67-.2-.8-.14-.13-.4.17-.8.91-.4.74-1.08,2.05-2.01,3.92-.94,1.88-2.35,4.63-4.22,8.25-2.82,5.63-6.07,11.43-9.75,17.4-3.69,5.97-7.41,11.5-11.16,16.59-.8,1.07-1.31,1.81-1.51,2.21s.03.27.7-.4c2.41-2.82,2.75-2.61,1.01.6-.94,1.74-1.21,2.62-.8,2.62.53,0,1.61-1.21,3.22-3.62.53-.8.97-1.54,1.31-2.21.33-.67.43-1.14.3-1.41-.27-.67,0-1.01.8-1.01.4,0,1.04-.53,1.91-1.61.87-1.07,1.78-2.31,2.71-3.72.94-1.41,1.71-2.75,2.31-4.02.6-1.27.84-2.11.7-2.51-.27-.8-.13-1.21.4-1.21s.67.27.4.8c-.4.4-.47.6-.2.6s.6-.33,1.01-1c.4-.67.84-1.47,1.31-2.41.47-.94.87-1.81,1.21-2.61.33-.8.5-1.41.5-1.81-.14-.4-.07-.87.2-1.41.27-.53.6-1.01,1-1.41.94-.67,1.41-1.47,1.41-2.41,0-.4.2-.94.6-1.61.4-.67.94-1.34,1.61-2.01.53-.53,1.14-1.31,1.81-2.31.67-1.01,1.34-2.08,2.01-3.22.67-1.14,1.21-2.18,1.61-3.12.4-.94.6-1.54.6-1.81,0-.53-.4-.27-1.21.8ZM705.11,220.45c.94-.94,1.27-1.41,1.01-1.41-.4,0-.94.47-1.61,1.41-.94.94-1.28,1.41-1,1.41.13,0,.37-.17.7-.5.33-.33.63-.63.91-.91ZM720.59,193.7c1.07-.67,1.07-.87,0-.6-.27,0-.64.2-1.11.6-.47.4-.94.91-1.41,1.51-.47.6-.87,1.21-1.21,1.81-.34.6-.5,1.11-.5,1.51,0,.54-.34,1.48-1.01,2.82l-1,2.21,1.41-1.81c.94-.94,1.41-1.74,1.41-2.41s.4-1.61,1.21-2.82c.8-1.21,1.54-2.14,2.21-2.82ZM724.01,188.06c1.07-1.88,1.54-3.02,1.41-3.42-.14-.4-.74.2-1.81,1.81-.67,1.34-1.14,2.41-1.41,3.22-.27.8-.2,1.21.2,1.21s.94-.94,1.61-2.82ZM748.35,135.16c.27-1.07.33-1.64.2-1.71-.13-.07-.4.24-.8.91-.94,1.21-1.44,1.51-1.51.91-.07-.6.23-1.78.91-3.52.4-.94.73-1.74,1.01-2.41.27-.67.33-1.07.2-1.21-.4-.13-.8.47-1.21,1.81-.67,1.48-1.28,2.21-1.81,2.21s-.91.34-1.11,1c-.2.67-.44,2.08-.7,4.22-.13,1.21-.1,1.91.1,2.11s.63-.03,1.31-.7c.67-.53,1.01-.6,1.01-.2s-.2,1.14-.6,2.21c-.27.27-.57.87-.91,1.81-.34.94-.64,1.95-.91,3.02-.27.8-.7,1.95-1.31,3.42-.6,1.48-1.48,3.42-2.62,5.83-1.14,2.41-2.58,5.4-4.32,8.95-1.74,3.55-3.82,7.88-6.24,12.97-.94,2.01-1.14,2.68-.6,2.01.94-.94,2.41-3.49,4.42-7.64,2.01-4.16,4.12-8.68,6.34-13.58,2.21-4.89,4.19-9.52,5.93-13.88,1.74-4.36,2.82-7.21,3.22-8.55ZM737.69,140.8c.27-.67.13-1.01-.4-1.01-.4,0-.6.34-.6,1.01,0,.27.07.47.2.6v.4c.27,0,.53-.33.8-1.01ZM741.51,144.62c-1.07,2.15-1.88,3.89-2.41,5.23-.54,1.34-1.01,2.58-1.41,3.72-.4,1.14-.6,1.84-.6,2.11v.2c.27,0,.73-.74,1.41-2.21.67-1.47,1.34-3.15,2.01-5.03.27-1.07.54-2.01.8-2.82.27-.8.33-1.21.2-1.21ZM747.95,110.62c.27-1.61.23-2.11-.1-1.51-.34.6-.77,1.84-1.31,3.72-.27.94-.64,2.25-1.11,3.92-.47,1.68-.97,3.25-1.51,4.73-.54,1.48-.91,2.68-1.11,3.62-.2.94-.17,1.34.1,1.21.13-.13.47-.97,1.01-2.51.53-1.54,1.11-3.22,1.71-5.03.6-1.81,1.14-3.52,1.61-5.13.47-1.61.71-2.62.71-3.02ZM743.72,116.06c-.27-.27-.4,0-.4.8.13.67.33.8.6.4.27-.4.2-.8-.2-1.21ZM745.94,106.8c.13.4.27.47.4.2.27-.53.27-.94,0-1.21-.27-.27-.4.07-.4,1.01ZM754.38,79.45c.67.27,1.01.13,1.01-.4s-.4-.8-1.21-.8c-.54,0-.84-.2-.9-.6-.07-.4-.04-1.34.1-2.82.4-3.08.33-3.82-.2-2.21-.54,1.61-1.21,4.56-2.01,8.85-.4,2.28-.84,4.76-1.31,7.44-.47,2.68-.91,4.9-1.31,6.64-.27,1.48-.54,2.92-.8,4.32-.27,1.41-.4,2.31-.4,2.72.13,0,.37-.5.7-1.51.33-1.01.7-2.18,1.11-3.52.4-1.34.74-2.65,1.01-3.92.27-1.27.4-2.11.4-2.51,0-.8.4-1.34,1.21-1.61.54-.27.87-.74,1.01-1.41.13-.67-.13-1-.8-1-.27,0-.3-.87-.1-2.62.2-1.74.57-3.15,1.11-4.22.27-.8.74-1.07,1.41-.8ZM749.36,131.95c.13-.27.27-.6.4-1.01.13-.4.2-.74.2-1.01,0-.8-.2-.67-.6.4-.4.94-.6,1.61-.6,2.01s.2.27.6-.4ZM750.36,121.89c.27-.53.2-.94-.2-1.21-.14-.13-.2.13-.2.8,0,1.07.13,1.21.4.4ZM751.17,119.07c.27-.27.43-.53.5-.8.07-.27.17-.53.3-.8,0-.4-.27-.47-.8-.2-.54.54-.74,1.08-.6,1.61,0,.67.2.74.6.2ZM750.56,100.77c0,1.21.13,1.74.4,1.61.27-.27.53-1.01.8-2.21,0-1.34-.13-1.94-.4-1.81-.27.27-.54,1.07-.8,2.41ZM750.97,34.6c0,.27.13,1.01.4,2.21.27,1.21.53,2.55.8,4.02.27,1.61.54,3.25.8,4.93.27,1.68.47,2.92.6,3.72,0,2.15.2,3.02.6,2.62.27-.27.3-1.11.1-2.51-.2-1.41-.44-3.05-.7-4.93-.4-2.68-.84-5.06-1.31-7.14-.47-2.08-.84-3.12-1.11-3.12-.14,0-.2.07-.2.2ZM756.19,90.51c-.27,1.08-.2,1.61.2,1.61.27.13.27.4,0,.8-.27.4-.67.8-1.21,1.21-.8.67-1.24,1.24-1.31,1.71-.07.47.1,1.44.5,2.92.4,1.34.6,2.35.6,3.02s-.13,1.34-.4,2.01c-.67,1.34-1.01,2.15-1.01,2.41.13.14.07.64-.2,1.51-.27.87-.6,1.91-1.01,3.12-.27,1.08-.47,2.05-.6,2.92-.13.87-.13,1.38,0,1.51h.2c.27,0,.6-.74,1.01-2.21.4-1.47,1.14-4.15,2.21-8.04,1.21-4.83,1.98-8.35,2.31-10.56.33-2.21.23-3.65-.3-4.32-.54-.8-.87-.67-1.01.4ZM755.99,109.82c.13-.4.27-.87.4-1.41.13-.53.2-1.01.2-1.41,0-.94-.2-.8-.6.4s-.6,2.15-.6,2.82.2.54.6-.4ZM757.6,66.38c-.27.67-.54,1.61-.8,2.82-.27,1.21-.47,2.38-.6,3.52-.13,1.14-.24,2.15-.3,3.02-.07.87-.03,1.31.1,1.31.27-.13.57-.74.91-1.81.33-1.07.63-2.34.91-3.82.8-4.56,1.01-6.84.6-6.84-.14,0-.4.6-.8,1.81ZM757.2,104.79c.27-.4.2-.8-.2-1.21-.27-.27-.4,0-.4.8.27.8.47.94.6.4ZM757.2,37.81c-.27-.27-.4,0-.4.8,0,1.08.13,1.21.4.4.27-.53.27-.94,0-1.21ZM758.01,101.37c.13-.53.23-1.07.3-1.61.07-.53.17-.94.3-1.21,0-.53-.2-.4-.6.4-.4.8-.6,1.74-.6,2.82,0,.94.2.8.6-.4ZM759.41,79.65c-.27-.27-.4.07-.4,1.01,0,1.07.13,1.21.4.4.13-.53.13-1.01,0-1.41ZM760.62,67.78c-.14-.27-.24-.27-.3,0-.07.27-.03.67.1,1.21,0,1.08.07,1.41.2,1.01.27-.8.27-1.54,0-2.21Z"/>
        <path class="cls-1" d="M960.95,133.96c.27.14-.24.97-1.51,2.51-1.28,1.54-2.99,3.45-5.13,5.73-2.01,2.28-3.45,3.96-4.33,5.03-.87,1.08-.9,1.28-.1.6.94-.8,1.98-1.78,3.12-2.92,1.14-1.14,2.04-2.18,2.71-3.12,1.47-1.88,2.51-2.88,3.12-3.02.6-.13.43.6-.5,2.21l-1.21,2.01,1.61-1.61,1.61-1.61-.2,3.22c-.13,2.28-.77,4.66-1.91,7.14-1.14,2.48-2.65,4.73-4.53,6.74-2.01,2.01-4.09,4.26-6.24,6.74-2.15,2.48-4.19,4.86-6.13,7.14-1.95,2.28-3.65,4.36-5.13,6.24-1.48,1.88-2.55,3.29-3.22,4.22-.8,1.21-1.91,2.65-3.32,4.32-1.41,1.68-2.71,3.12-3.92,4.32-1.34,1.08-2.48,2.08-3.42,3.02-.94.94-1.41,1.54-1.41,1.81-.27.4-1.38,1.34-3.32,2.82-1.95,1.48-3.92,2.75-5.93,3.82-3.49,2.01-6.57,3.09-9.25,3.22-2.68.13-5.83-.53-9.45-2.01-1.88-.67-3.99-2.45-6.34-5.33-2.35-2.88-4.26-5.93-5.73-9.15-.27-.67-.5-1.31-.7-1.91s-.34-1.37-.4-2.31c-.07-.94-.1-2.14-.1-3.62v-6.03c0-3.08.03-5.86.1-8.35.07-2.48.17-4.05.3-4.73.13-1.47,0-2.21-.4-2.21-.27,0-.47-.53-.6-1.61-.13-1.07-.13-3.28,0-6.64v-5.73c0-1.54-.13-2.31-.4-2.31s-1.01.54-2.21,1.61c-1.21,1.07-2.65,2.41-4.32,4.02-1.68,1.61-3.39,3.35-5.13,5.23-1.74,1.88-3.29,3.62-4.63,5.23-4.29,4.96-7.98,9.62-11.06,13.98-3.09,4.36-5.36,8.15-6.84,11.36-.4,1.08-.9,2.21-1.51,3.42s-1.11,2.15-1.51,2.82c-.4.8-.84,1.68-1.31,2.62-.47.94-.84,1.68-1.11,2.21-.8,1.88-1.38,3.05-1.71,3.52-.34.47-.77.84-1.31,1.11-.27.27-.64.5-1.11.7-.47.2-.91.44-1.31.7-1.07.8-2.11.94-3.12.4-1.01-.53-1.84-1.54-2.51-3.02-.27-.8-.77-1.74-1.51-2.82-.74-1.07-1.44-1.94-2.11-2.61-1.48-1.61-2.38-3.12-2.71-4.53-.34-1.41-.5-3.79-.5-7.14,0-1.21.1-2.78.3-4.73.2-1.94.43-3.99.7-6.13.27-2.14.6-4.36,1.01-6.64.4-2.28.8-4.29,1.21-6.03.67-3.08,1.11-5.83,1.31-8.25.2-2.41.1-3.75-.3-4.02-.27-.13-.44-.77-.5-1.91-.07-1.14-.1-2.51-.1-4.12s-.04-2.98-.1-4.12c-.07-1.14-.17-1.71-.3-1.71-.27,0-1.01.7-2.21,2.11s-2.68,3.05-4.42,4.93c-5.1,5.9-10.23,12.3-15.39,19.21-5.16,6.91-10.06,13.88-14.68,20.92-4.63,7.04-8.88,13.98-12.77,20.82-3.89,6.84-7.11,13.14-9.65,18.91-.8,1.74-1.64,3.39-2.51,4.93-.87,1.54-1.64,2.58-2.31,3.12-1.34,1.34-2.01,2.35-2.01,3.02,0,.27-.2.77-.6,1.51-.4.74-.91,1.48-1.51,2.21-.6.74-1.17,1.38-1.71,1.91-.53.54-.87.74-1.01.6-.13,0-.37-.03-.7-.1-.33-.07-.77-.1-1.31-.1v-.2c-1.07,0-1.74-.33-2.01-1.01-.27-.67-.67-1.01-1.21-1.01-.67,0-1.31-.4-1.91-1.21-.6-.8-1.17-1.78-1.71-2.92-.53-1.14-.97-2.41-1.31-3.82-.33-1.41-.5-2.72-.5-3.92,0-1.47.6-4.25,1.81-8.35,1.21-4.09,2.88-9.08,5.03-14.98,2.15-5.9,4.73-12.5,7.74-19.81,3.02-7.31,6.27-14.98,9.75-23.03,1.74-4.02,3.35-7.78,4.83-11.26,1.47-3.49,2.75-6.57,3.82-9.25,1.07-2.68,1.91-4.79,2.51-6.34.6-1.54.91-2.38.91-2.51-.4-.4-1.07-.2-2.01.6-1.21.94-1.81,1.04-1.81.3s.6-1.91,1.81-3.52c.67-.8,1.61-2.14,2.82-4.02,1.21-1.88,2.41-3.75,3.62-5.63,1.47-2.41,2.98-4.83,4.53-7.24,1.54-2.41,3.02-4.56,4.42-6.44,1.41-1.88,2.62-3.42,3.62-4.63s1.71-1.88,2.11-2.01c.94-.27,2.24-.2,3.92.2,1.67.4,2.85.94,3.52,1.61,1.07.8,1.94,1.21,2.61,1.21.67.13,1.11.34,1.31.6.2.27.23.94.1,2.01,0,1.48.33,2.21,1.01,2.21s1.07.34,1.21,1.01c.13.67-.13,1.14-.8,1.41-.4.27-.87,1.01-1.41,2.21-.27.54-.8,1.51-1.61,2.92-.8,1.41-1.75,2.85-2.82,4.33-1.08,1.48-2.35,3.49-3.82,6.03-1.48,2.55-2.75,4.9-3.82,7.04-1.21,2.41-2.55,5.2-4.02,8.35-1.48,3.15-2.85,6.13-4.12,8.95-1.28,2.82-2.28,5.16-3.02,7.04-.74,1.88-.97,2.62-.71,2.21.27-.27,1.21-1.41,2.82-3.42,1.61-2.01,3.35-4.29,5.23-6.84,2.01-2.41,4.12-4.93,6.33-7.54,2.21-2.62,4.36-5.03,6.44-7.24,2.08-2.21,3.99-4.22,5.73-6.03,1.74-1.81,3.15-3.12,4.22-3.92,1.07-.67,2.08-1.17,3.02-1.51.94-.33,2.14-.57,3.62-.7,1.74-.13,2.92-.1,3.52.1s1.44.64,2.51,1.31c1.47,1.21,2.55,1.81,3.22,1.81s1.31.44,1.91,1.31c.6.87,1.44,2.45,2.51,4.73.4.94.73,1.74,1.01,2.41.27.67.43,1.51.5,2.51.07,1.01.1,2.35.1,4.02v7.14c0,2.95-.04,5.43-.1,7.44-.07,2.01-.2,4.02-.4,6.03-.2,2.01-.5,4.29-.9,6.84-.4,2.55-.94,5.83-1.61,9.86l-.2,2.21,2.21-3.22c2.82-4.29,5.86-8.51,9.15-12.67,3.28-4.16,6.54-8.01,9.75-11.57,3.22-3.55,6.3-6.67,9.25-9.35,2.95-2.68,5.5-4.63,7.64-5.83.67-.4,1.54-.67,2.61-.8,1.07-.13,2.21-.17,3.42-.1,1.21.07,2.31.27,3.32.6,1.01.34,1.78.7,2.31,1.11.8.67,1.41,1.34,1.81,2.01,0,.27.27.8.8,1.61.54.67.97,1.48,1.31,2.41.33.94.57,2.31.7,4.12.13,1.81.23,4.22.3,7.24.07,3.02.1,7.01.1,11.97-.13,6.3-.13,11.6,0,15.89.13,4.29.33,7.38.6,9.25l.6,5.63,2.21.2c1.34.27,3.32-.2,5.93-1.41,2.61-1.21,5.19-2.75,7.74-4.63,1.88-1.34,4.42-3.45,7.64-6.34,3.22-2.88,6.6-6.07,10.16-9.55,3.55-3.49,7.11-7.07,10.66-10.76,3.55-3.69,6.6-7,9.15-9.96,5.23-6.17,9.15-10.62,11.77-13.38,2.61-2.75,4.05-4.05,4.32-3.92ZM747.75,226.08c.4-1.07.4-1.81,0-2.21-.54-.53-.8-.07-.8,1.41.13,1.08.24,1.64.3,1.71.07.07.24-.23.5-.91ZM757.2,198.32c.67-1.74,1.24-3.25,1.71-4.53.47-1.27.71-2.04.71-2.31s-.13-.27-.4,0c-.27.27-.57.67-.91,1.21-.33.54-.6,1.08-.8,1.61-.2.54-.3.94-.3,1.21,0,.8-.2,1.41-.6,1.81-.13.13-.33.57-.6,1.31-.27.74-.53,1.58-.8,2.51-.27,1.08-.63,2.08-1.11,3.02-.47.94-.84,1.68-1.11,2.21-.27.54-.67,1.41-1.21,2.62-.53,1.21-1.07,2.51-1.61,3.92-.53,1.41-1,2.68-1.41,3.82-.4,1.14-.6,1.84-.6,2.11s.37-.33,1.11-1.81c.74-1.47,1.58-3.32,2.51-5.53.94-2.21,1.91-4.53,2.92-6.94,1-2.41,1.84-4.49,2.51-6.24ZM777.11,151.86c1.61-3.49,2.98-6.47,4.12-8.95,1.14-2.48,1.64-3.72,1.51-3.72s-.6.6-1.41,1.81-1.74,2.68-2.82,4.42c-2.28,3.62-4.06,6.74-5.33,9.35-1.28,2.61-1.78,4.19-1.51,4.73.13.13-.04.77-.5,1.91-.47,1.14-1.01,2.35-1.61,3.62-.6,1.28-1.17,2.45-1.71,3.52-.54,1.08-.94,1.68-1.21,1.81-.27,0-.4.4-.4,1.21,0,.27-.2.9-.6,1.91s-.94,2.18-1.61,3.52c-.54,1.34-1.04,2.61-1.51,3.82-.47,1.21-.77,2.15-.91,2.82-.13.54-.27,1.04-.4,1.51-.13.47-.33.77-.6.91-.27.27-.5,1.11-.71,2.51-.2,1.41-.17,2.11.1,2.11.27-.67.6-1.47,1-2.41.27-.67.64-1.47,1.11-2.41.47-.94.91-1.94,1.31-3.02,1.07-2.68,2.08-5.09,3.02-7.24.94-2.14,1.91-4.36,2.92-6.64,1.01-2.28,2.11-4.76,3.32-7.44,1.21-2.68,2.68-5.9,4.42-9.65ZM799.24,141.6l-1.81,2.01c-1.07,1.07-1.71,1.74-1.91,2.01-.2.27-.1.4.3.4s1.07-.74,2.01-2.21l1.41-2.21ZM803.86,136.17c.4-.67.53-1.01.4-1.01-.27,0-.6.34-1.01,1.01-.27.27-.4.54-.4.8l-.2.2c.4,0,.8-.33,1.21-1.01Z"/>
        <path class="cls-1" d="M979.26,204.56c0,.27-.84,1.28-2.51,3.02-1.68,1.74-3.86,3.76-6.54,6.03-1.08.94-2.45,2.01-4.12,3.22-1.68,1.21-3.39,2.28-5.13,3.22-1.74.94-3.32,1.74-4.73,2.41-1.41.67-2.45,1-3.12,1h-3.02c-6.3.27-11.73-2.54-16.29-8.45-.67-.94-1.27-1.74-1.81-2.41-.53-.67-.8-1.14-.8-1.41,0-.4.14-1.54.4-3.42.27-1.88.64-4.02,1.11-6.44.47-2.41.94-4.79,1.41-7.14.47-2.34.84-4.05,1.11-5.13.27-.67.54-1.58.8-2.72.27-1.14.54-2.11.8-2.92.27-.8.6-1.84,1.01-3.12.4-1.27.74-2.38,1.01-3.32.4-1.07.9-2.41,1.51-4.02.6-1.61,1.18-3.15,1.71-4.63.54-1.47,1.14-3.02,1.81-4.63.67-1.61,1.21-2.82,1.61-3.62s1.04-2.11,1.91-3.92c.87-1.81,1.71-3.59,2.51-5.33,1.47-2.95,2.65-5.33,3.52-7.14.87-1.81,1.61-3.32,2.21-4.53.6-1.21,1.17-2.21,1.71-3.02.53-.8,1.14-1.67,1.81-2.62,1.34-1.88,2.24-3.02,2.71-3.42.47-.4,1.17-.67,2.11-.8.8-.13,1.57-.03,2.31.3.73.34,1.91,1.04,3.52,2.11l3.82,2.41.2,2.41c0,.67-.13,1.44-.4,2.31-.27.87-.54,1.64-.8,2.31-.4.67-.88,1.58-1.41,2.72-.54,1.14-1.08,2.18-1.61,3.12-.4,1.08-.94,2.21-1.61,3.42-.67,1.21-1.21,2.15-1.61,2.82-.4.8-.97,1.91-1.71,3.32-.74,1.41-1.44,2.72-2.11,3.92-.67,1.34-1.38,2.61-2.11,3.82-.74,1.21-1.24,2.15-1.51,2.82-.27.67-.67,1.51-1.21,2.51-.54,1.01-1.01,1.98-1.41,2.92-.4.94-.8,1.88-1.21,2.82-.4.94-.74,1.54-1.01,1.81-.8,1.48-1.68,3.42-2.61,5.83-.94,2.41-1.84,4.93-2.72,7.54-.87,2.62-1.68,5.2-2.41,7.74-.74,2.55-1.24,4.76-1.51,6.64-.4,1.88-.8,2.82-1.21,2.82-.67,0-1.01.27-1.01.8,0,.27.2.34.6.2.54-.27.87-.13,1.01.4.13.54,0,1.08-.4,1.61-.27.27-.27,1.34,0,3.22l.2,2.41,2.62-.6c3.22-.53,8.45-3.95,15.69-10.26,3.89-3.22,8.05-7.17,12.47-11.87,4.42-4.69,8.82-9.62,13.17-14.78,4.36-5.16,8.51-10.32,12.47-15.49,3.95-5.16,7.27-9.96,9.96-14.38.94-1.47,1.78-2.78,2.51-3.92.74-1.14,1.24-1.71,1.51-1.71.4,0,1.07-.87,2.01-2.62.94-1.61,1.47-2.34,1.61-2.21.13.13.1.5-.1,1.11s-.5,1.28-.9,2.01c-.4.74-.84,1.44-1.31,2.11-.47.67-.84,1-1.11,1-.67,0-.8.2-.4.6.27.14.13.7-.4,1.71-.54,1.01-1.21,2.11-2.01,3.32-.8,1.48-1.51,2.68-2.11,3.62-.6.94-.91,1.48-.91,1.61.13.27.47-.07,1-1,.27-.4.54-.84.8-1.31.27-.47.54-.84.8-1.11.13-.27.43-.77.91-1.51.47-.74.97-1.57,1.51-2.51,1.21-2.01,2.04-3.32,2.51-3.92.47-.6.84-.64,1.11-.1.13.4,0,.94-.4,1.61-.27.27-.77.91-1.51,1.91-.74,1.01-1.44,2.11-2.11,3.32-.54.94-1.28,2.11-2.21,3.52-.94,1.41-1.88,2.82-2.82,4.22-.94,1.41-1.84,2.75-2.72,4.02-.87,1.28-1.58,2.31-2.11,3.12-.54.8-.8,1.48-.8,2.01-.13.67.27.54,1.21-.4.67-.8,1.64-2.04,2.92-3.72,1.27-1.67,2.51-3.42,3.72-5.23,1.21-1.81,2.24-3.38,3.12-4.73.87-1.34,1.24-2.08,1.11-2.21-.27-.27-.2-.4.2-.4.27.27.63-.07,1.11-1.01.47-.94.57-1.54.3-1.81-.27-.4-.07-.94.6-1.61l.8-1.41.2,2.01c0,.8-.17,1.74-.5,2.82-.34,1.08-1.01,2.55-2.01,4.43-1,1.88-2.48,4.39-4.42,7.54-1.95,3.15-4.53,7.28-7.74,12.37-.8,1.34-1.58,2.58-2.31,3.72-.74,1.14-1.61,2.35-2.62,3.62-1.01,1.28-2.25,2.82-3.72,4.63-1.48,1.81-3.35,4.12-5.63,6.94-2.15,2.68-4.06,4.93-5.73,6.74-1.68,1.81-2.78,2.85-3.32,3.12-.54.13-.8.54-.8,1.21ZM972.42,106.4c-.54-.27-.71-.67-.5-1.21.2-.53.84-1.94,1.91-4.22.8-1.47,1.98-3.35,3.52-5.63,1.54-2.28,3.22-4.56,5.03-6.84,1.81-2.28,3.59-4.46,5.33-6.54,1.74-2.08,3.29-3.72,4.63-4.93,2.54-2.28,4.26-3.49,5.13-3.62.87-.13,1.78.8,2.71,2.82.94,1.74,1.21,2.95.8,3.62-.13.27-.27.64-.4,1.11-.13.47-.2.91-.2,1.31s-.3,1.11-.9,2.11-1.24,1.98-1.91,2.92c-2.15,2.82-3.96,5.46-5.43,7.94-1.48,2.48-2.95,5.06-4.43,7.74-1.88,3.76-3.35,6.34-4.42,7.74-1.08,1.41-1.88,1.78-2.41,1.11-.13-.13-.44-.2-.91-.2h-1.51c-1.34,0-2.48-.53-3.42-1.61-.4-.53-.77-1.01-1.11-1.41-.34-.4-.5-.74-.5-1.01-.13-.13-.27-.3-.4-.5-.14-.2-.34-.43-.6-.7ZM999.37,170.97c-.67-.13-1,0-1,.4s.47.6,1.41.6c.27-.13.6-.2,1.01-.2,0-.13.07-.2.2-.2-.13,0-.34-.07-.6-.2-.27-.13-.6-.27-1.01-.4Z"/>
        <path class="cls-1" d="M1159.88,151.25c.53,0,.67.6.4,1.81-.27,1.21-.94,2.82-2.01,4.83-.67,1.21-1.64,2.75-2.92,4.63-1.28,1.88-2.65,3.69-4.12,5.43-1.48,1.61-2.72,3.15-3.72,4.63-1,1.48-1.58,2.41-1.71,2.82-.14.54-1.04,1.74-2.72,3.62-1.68,1.88-3.69,3.99-6.03,6.34-2.35,2.35-4.83,4.73-7.44,7.14-2.61,2.41-5.06,4.42-7.34,6.03-2.01,1.61-4.66,3.59-7.94,5.93-3.29,2.35-6.21,4.39-8.75,6.13-2.68,1.74-5.23,3.45-7.64,5.13-2.41,1.68-4.02,2.85-4.83,3.52-2.82,2.01-6.17,3.96-10.06,5.83-3.89,1.88-7.98,3.62-12.27,5.23-4.29,1.61-8.58,2.99-12.87,4.12-4.29,1.14-8.18,1.98-11.67,2.51-1.07.27-2.55.47-4.42.6-1.88.13-3.75.2-5.63.2-2.55,0-5.16-.3-7.84-.91-2.68-.6-5.26-1.51-7.74-2.71-2.48-1.21-4.8-2.65-6.94-4.33-2.15-1.67-3.96-3.59-5.43-5.73-.67-.94-1.34-1.94-2.01-3.02-.67-1.07-1.21-1.94-1.61-2.62-2.95-4.29-4.76-8.61-5.43-12.97-.67-4.36-.4-9.55.8-15.59.8-4.02,2.15-8.35,4.02-12.97,1.88-4.63,4.19-9.35,6.94-14.18,2.75-4.83,5.86-9.72,9.35-14.68,3.49-4.96,7.24-9.72,11.26-14.28,2.28-2.54,4.63-5.09,7.04-7.64,2.41-2.55,4.73-4.83,6.94-6.84,2.21-2.01,4.12-3.65,5.73-4.93,1.61-1.27,2.68-1.91,3.22-1.91.94,0,2.01-.6,3.22-1.81,1.61-1.61,3.72-3.12,6.34-4.53,2.62-1.41,5.43-2.61,8.45-3.62,3.02-1.01,6.04-1.78,9.05-2.31,3.02-.53,5.73-.8,8.15-.8,4.43,0,8.68,1.21,12.77,3.62,4.09,2.41,6.54,6.03,7.34,10.86.13.94.23,1.68.3,2.21.07.54.03,1.14-.1,1.81-.14.67-.34,1.44-.6,2.31-.27.87-.67,2.11-1.21,3.72-.54,1.88-1.28,3.86-2.21,5.93-.94,2.08-1.74,3.72-2.41,4.93-.67,1.08-1.28,2.08-1.81,3.02-.54.94-.8,1.48-.8,1.61,0,.27-.57,1.28-1.71,3.02-1.14,1.74-2.51,3.82-4.12,6.24-1.21,1.88-2.68,4.02-4.43,6.44-1.74,2.41-3.69,4.73-5.83,6.94-2.15,2.21-4.43,4.09-6.84,5.63-2.41,1.54-4.9,2.31-7.44,2.31-3.35,0-6.44-1.07-9.25-3.22-3.35-2.68-4.9-5.43-4.63-8.25l.2-2.41h3.62c1.74,0,2.92.1,3.52.3s1.44.7,2.51,1.51c1.61,1.34,2.55,2.01,2.82,2.01.54,0,1.88-.94,4.02-2.82,2.14-1.88,4.15-3.95,6.03-6.24,1.47-1.74,3.38-4.22,5.73-7.44,2.34-3.22,4.63-6.64,6.84-10.26,2.21-3.62,4.12-7.17,5.73-10.66,1.61-3.49,2.41-6.44,2.41-8.85,0-2.28-.14-4.09-.4-5.43-.67-2.14-3.49-3.22-8.45-3.22-2.28,0-4.39.34-6.34,1-1.95.67-4.06,1.74-6.34,3.22-.8.54-1.91,1.17-3.32,1.91-1.41.74-2.65,1.44-3.72,2.11-1.07.67-2.25,1.38-3.52,2.11-1.28.74-2.31,1.44-3.12,2.11-.67.54-1.28.97-1.81,1.31-.54.34-.88.5-1.01.5-.27,0-1.44.97-3.52,2.92-2.08,1.95-4.46,4.26-7.14,6.94-2.68,2.68-5.4,5.43-8.15,8.25-2.75,2.82-4.93,5.1-6.54,6.84-1.74,2.01-3.69,4.46-5.83,7.34-2.15,2.89-4.19,5.8-6.13,8.75-1.95,2.95-3.62,5.6-5.03,7.94-1.41,2.35-2.25,4.06-2.51,5.13-.14.4-.44,1.31-.91,2.72-.47,1.41-1.04,2.85-1.71,4.32-1.74,3.89-3.15,7.98-4.22,12.27-1.07,4.29-1.61,8.58-1.61,12.87,0,6.3,1.21,11.16,3.62,14.58,2.41,3.42,6.77,5.87,13.07,7.34,2.68.67,5.5,1.01,8.45,1.01,5.36,0,11.09-.87,17.2-2.62,6.1-1.74,12.3-4.02,18.61-6.84,6.3-2.82,12.6-6.1,18.91-9.86,6.3-3.75,12.33-7.64,18.1-11.67,5.76-4.02,11.09-8.08,15.99-12.17,4.89-4.09,9.15-7.88,12.77-11.36,2.14-2.01,4.19-4.05,6.13-6.13,1.94-2.08,3.25-3.59,3.92-4.53.67-1.07,1.54-2.24,2.61-3.52,1.07-1.27,2.01-2.45,2.82-3.52.8-1.07,1.54-2.08,2.21-3.02.67-.94,1.14-1.61,1.41-2.01.4-1.07.87-1.61,1.41-1.61.27,0,.57-.2.91-.6.33-.4.7-.87,1.11-1.41,1.07-1.47,1.71-2.11,1.91-1.91s-.17,1.18-1.11,2.92c-.67,1.34-1,2.11-1,2.31s.27-.03.8-.7c.67-.67,1.04-1.04,1.11-1.11.07-.07.03.24-.1.9-.27.8-.2,1.21.2,1.21ZM1004.2,186.45c.8-2.41,1.84-5.09,3.12-8.05,1.28-2.95,2.51-5.63,3.72-8.04,1.07-2.01,1.91-3.69,2.51-5.03.6-1.34.77-2.01.5-2.01-.8.8-1.91,2.55-3.32,5.23-1.41,2.68-2.75,5.63-4.02,8.85-1.27,3.22-2.38,6.37-3.32,9.45-.94,3.09-1.41,5.43-1.41,7.04l-.2,3.82.8-4.22c.27-1.07.54-2.31.8-3.72.27-1.41.54-2.51.8-3.32ZM1020.49,153.67c0-.13-.14-.07-.4.2-.27.27-.6.64-1.01,1.11-.4.47-.74.94-1,1.41-.27.47-.4.77-.4.91,0,.27.47-.2,1.41-1.41.53-.8.87-1.34,1.01-1.61.13-.27.27-.47.4-.6ZM1022.9,149.45c-1.21,1.48-1.81,2.35-1.81,2.61,0,.4.37.17,1.11-.7.73-.87,1.31-1.78,1.71-2.71.27-.4-.07-.13-1.01.8ZM1030.34,139.79c-.8.94-1.51,1.74-2.11,2.41-.6.67-.9,1.14-.9,1.41.27,0,.94-.53,2.01-1.61s1.94-2.28,2.61-3.62c.27-.4.23-.47-.1-.2-.34.27-.84.8-1.51,1.61ZM1145.19,171.77c-.27,0-1.14.7-2.62,2.11-1.48,1.41-3.09,3.02-4.83,4.83-1.74,1.81-3.39,3.55-4.93,5.23-1.54,1.68-2.51,2.72-2.92,3.12-1.08.94-1.91,1.78-2.51,2.51-.6.74-.84,1.18-.7,1.31,0,.27-.07.34-.2.2-.13-.13-.44-.07-.9.2-.47.27-.97.6-1.51,1.01-.54.4-1.51,1.18-2.92,2.31-1.41,1.14-2.85,2.31-4.32,3.52-7.11,5.23-10.66,8.32-10.66,9.25,0,.27-.4.8-1.21,1.61l-.8.8,6.03-3.82c1.34-1.07,2.88-2.24,4.63-3.52,1.74-1.27,3.22-2.45,4.43-3.52,1.21-.94,2.34-1.81,3.42-2.62,1.07-.8,1.81-1.34,2.21-1.61.8-.67,2.31-2.08,4.53-4.22,2.21-2.14,4.49-4.46,6.84-6.94,2.34-2.48,4.43-4.83,6.24-7.04,1.81-2.21,2.72-3.79,2.72-4.73ZM1150.62,165.94c.94-1.34,1.27-2.01,1.01-2.01-.94,1.21-1.68,2.15-2.21,2.82-.54.67-1.04,1.34-1.51,2.01-.47.67-.7,1.08-.7,1.21,0,.4.4.13,1.21-.8.8-.94,1.54-2.01,2.21-3.22Z"/>
      </g>
      <g>
        <path class="cls-2" d="M185.37,262.15h-11.79l-1.95,5.64h-6.23l10.64-29.64h6.91l10.64,29.64h-6.28l-1.95-5.64ZM179.47,245.02l-4.28,12.38h8.57l-4.28-12.38Z"/>
        <path class="cls-2" d="M221.23,237.81c6.57,0,11.92,3.52,13.91,9.58h-6.83c-1.4-2.84-3.94-4.24-7.12-4.24-5.17,0-8.86,3.77-8.86,9.79s3.69,9.8,8.86,9.8c3.18,0,5.72-1.4,7.12-4.28h6.83c-1.99,6.11-7.34,9.58-13.91,9.58-8.52,0-15.01-6.23-15.01-15.1s6.49-15.14,15.01-15.14Z"/>
        <path class="cls-2" d="M246.16,267.79h-5.94v-23.49h5.94v3.65c1.48-2.42,3.94-3.99,7.21-3.99v6.23h-1.57c-3.52,0-5.64,1.36-5.64,5.89v11.7Z"/>
        <path class="cls-2" d="M267.61,268.17c-6.83,0-11.79-4.75-11.79-12.13s4.83-12.13,11.79-12.13,11.58,4.62,11.58,11.62c0,.76-.04,1.53-.17,2.29h-17.17c.3,3.48,2.67,5.43,5.64,5.43,2.54,0,3.94-1.27,4.71-2.84h6.4c-1.27,4.33-5.17,7.76-10.98,7.76ZM261.89,253.84h11.15c-.08-3.1-2.54-5.05-5.6-5.05-2.84,0-5.09,1.82-5.56,5.05Z"/>
        <path class="cls-2" d="M292.71,243.92c3.77,0,6.36,1.78,7.76,3.73v-3.35h5.98v23.49h-5.98v-3.43c-1.4,2.04-4.07,3.82-7.8,3.82-5.94,0-10.69-4.88-10.69-12.21s4.75-12.04,10.73-12.04ZM294.24,249.13c-3.18,0-6.19,2.38-6.19,6.83s3.01,7,6.19,7,6.23-2.46,6.23-6.91-2.97-6.91-6.23-6.91Z"/>
        <path class="cls-2" d="M313.19,249.17h-2.8v-4.88h2.8v-5.81h5.98v5.81h5.26v4.88h-5.26v11.36c0,1.57.64,2.25,2.5,2.25h2.76v5h-3.73c-4.49,0-7.51-1.91-7.51-7.29v-11.32Z"/>
        <path class="cls-2" d="M328.07,238.02c0-1.95,1.53-3.48,3.65-3.48s3.65,1.53,3.65,3.48-1.57,3.48-3.65,3.48-3.65-1.53-3.65-3.48ZM328.71,244.3h5.94v23.49h-5.94v-23.49Z"/>
        <path class="cls-2" d="M344.35,244.3l5.94,18.02,5.94-18.02h6.32l-8.69,23.49h-7.21l-8.65-23.49h6.36Z"/>
        <path class="cls-2" d="M376.15,268.17c-6.83,0-11.79-4.75-11.79-12.13s4.83-12.13,11.79-12.13,11.58,4.62,11.58,11.62c0,.76-.04,1.53-.17,2.29h-17.17c.3,3.48,2.67,5.43,5.64,5.43,2.54,0,3.94-1.27,4.71-2.84h6.4c-1.27,4.33-5.17,7.76-10.98,7.76ZM370.43,253.84h11.15c-.08-3.1-2.54-5.05-5.6-5.05-2.84,0-5.09,1.82-5.55,5.05Z"/>
        <path class="cls-2" d="M420.29,262.15h-11.79l-1.95,5.64h-6.23l10.64-29.64h6.91l10.64,29.64h-6.28l-1.95-5.64ZM414.39,245.02l-4.28,12.38h8.57l-4.28-12.38Z"/>
        <path class="cls-2" d="M441.7,243.92c3.69,0,6.36,1.7,7.76,3.73v-3.35h5.98v23.66c0,6.36-3.9,11.41-11.62,11.41-6.61,0-11.24-3.31-11.83-8.69h5.89c.59,2.12,2.8,3.52,5.77,3.52,3.27,0,5.81-1.87,5.81-6.23v-3.65c-1.4,2.04-4.07,3.86-7.76,3.86-5.98,0-10.73-4.88-10.73-12.21s4.75-12.04,10.73-12.04ZM443.22,249.13c-3.18,0-6.19,2.38-6.19,6.83s3.01,7,6.19,7,6.23-2.46,6.23-6.91-2.97-6.91-6.23-6.91Z"/>
        <path class="cls-2" d="M471.5,268.17c-6.83,0-11.79-4.75-11.79-12.13s4.83-12.13,11.79-12.13,11.58,4.62,11.58,11.62c0,.76-.04,1.53-.17,2.29h-17.17c.3,3.48,2.67,5.43,5.64,5.43,2.54,0,3.94-1.27,4.71-2.84h6.4c-1.27,4.33-5.17,7.76-10.98,7.76ZM465.78,253.84h11.15c-.08-3.1-2.54-5.05-5.6-5.05-2.84,0-5.09,1.82-5.55,5.05Z"/>
        <path class="cls-2" d="M503.85,254.81c0-3.77-2.08-5.81-5.22-5.81s-5.3,2.04-5.3,5.81v12.98h-5.94v-23.49h5.94v2.93c1.53-1.99,4.07-3.26,7.08-3.26,5.47,0,9.37,3.56,9.37,10.05v13.78h-5.94v-12.98Z"/>
        <path class="cls-2" d="M525.52,243.92c5.85,0,9.79,3.05,11.07,8.31h-6.4c-.68-1.99-2.25-3.26-4.71-3.26-3.31,0-5.51,2.5-5.51,7.08s2.2,7.04,5.51,7.04c2.46,0,3.99-1.1,4.71-3.22h6.4c-1.27,5-5.22,8.31-11.07,8.31-6.78,0-11.62-4.75-11.62-12.13s4.83-12.13,11.62-12.13Z"/>
        <path class="cls-2" d="M557.1,244.3h6.32l-14.54,34.6h-6.32l5.09-11.7-9.41-22.9h6.66l6.06,16.41,6.15-16.41Z"/>
      </g>
    </g>
  </g>
</svg>