<?xml version="1.0" encoding="UTF-8"?>
<svg id="Layer_2" xmlns="http://www.w3.org/2000/svg" viewBox="0 0 348.23 66.61">
  <defs>
    <style>
      .cls-1 {
        fill: #ffc107;
      }
    </style>
  </defs>
  <g id="Layer_1-2" data-name="Layer_1">
    <g>
      <g>
        <path d="M104.62,54.93V17.98h7.98v36.95h-7.98ZM111.6,38.13v-4.89h7.18c1.56,0,2.69-.4,3.39-1.2.7-.8,1.05-1.86,1.05-3.19,0-1.4-.35-2.49-1.05-3.29s-1.83-1.2-3.39-1.2h-7.18v-6.38h6.68c4.19,0,7.41.88,9.65,2.64,2.24,1.76,3.37,4.27,3.37,7.53v.75c0,2.26-.57,4.07-1.72,5.44-1.15,1.36-2.69,2.34-4.64,2.92-1.94.58-4.16.87-6.66.87h-6.68ZM111.6,54.93v-6.38h8.53c1.53,0,2.68-.4,3.44-1.2.76-.8,1.15-1.93,1.15-3.39s-.38-2.58-1.15-3.37c-.77-.78-1.91-1.17-3.44-1.17h-8.53v-4.94h8.13c2.53,0,4.77.31,6.73.92,1.96.62,3.51,1.6,4.64,2.97s1.7,3.21,1.7,5.54v.7c0,2.16-.5,4.01-1.5,5.56-1,1.55-2.46,2.73-4.39,3.54-1.93.82-4.32,1.22-7.18,1.22h-8.13Z"/>
        <path d="M147.9,55.53c-3.16,0-5.58-1.02-7.28-3.07-1.7-2.04-2.54-5.13-2.54-9.25v-15.86h7.98v16.26c0,1.46.41,2.63,1.25,3.49.83.86,1.95,1.3,3.34,1.3s2.59-.45,3.49-1.35c.9-.9,1.35-2.11,1.35-3.64v-16.06h7.98v27.33h-6.33v-11.52h.55c0,2.76-.36,5.06-1.07,6.91-.71,1.85-1.77,3.22-3.17,4.11-1.4.9-3.13,1.35-5.19,1.35h-.35Z"/>
        <path d="M169.05,54.68v-5.59l12.82-15.36v.8l-1.2-1.5.9.45h-12.47v-6.13h21.49v5.59l-12.82,15.36v-.75l1.2,1.5-.9-.5h12.92v6.13h-21.94Z"/>
        <path d="M194.08,54.68v-5.59l12.82-15.36v.8l-1.2-1.5.9.45h-12.47v-6.13h21.49v5.59l-12.82,15.36v-.75l1.2,1.5-.9-.5h12.92v6.13h-21.94Z"/>
        <path d="M220.91,54.68v-27.33h6.33v11.72h-.45c0-2.79.36-5.12,1.07-6.98.71-1.86,1.8-3.26,3.27-4.19s3.24-1.4,5.34-1.4h.35c3.19,0,5.63,1.04,7.31,3.12s2.52,5.23,2.52,9.45v15.61h-7.98v-16.06c0-1.46-.43-2.66-1.3-3.59-.87-.93-2.03-1.4-3.49-1.4s-2.7.47-3.62,1.42-1.37,2.19-1.37,3.72v15.91h-7.98Z"/>
        <path d="M265.95,55.63c-2.33,0-4.38-.4-6.16-1.2-1.78-.8-3.26-1.87-4.44-3.22-1.18-1.35-2.08-2.86-2.69-4.54-.62-1.68-.92-3.4-.92-5.16v-1c0-1.83.31-3.58.92-5.26.61-1.68,1.5-3.18,2.67-4.51,1.16-1.33,2.62-2.39,4.36-3.17,1.75-.78,3.73-1.17,5.96-1.17,2.93,0,5.39.66,7.41,1.97,2.01,1.31,3.55,3.03,4.61,5.14,1.06,2.11,1.6,4.41,1.6,6.91v2.69h-24.19v-4.54h19.35l-2.59,2.09c0-1.63-.23-3.02-.7-4.19-.47-1.16-1.16-2.05-2.07-2.67-.91-.61-2.05-.92-3.42-.92s-2.58.32-3.54.95c-.96.63-1.7,1.55-2.19,2.77-.5,1.21-.75,2.7-.75,4.46,0,1.63.23,3.05.7,4.26.47,1.21,1.2,2.15,2.2,2.82,1,.67,2.29,1,3.89,1,1.46,0,2.66-.28,3.59-.85.93-.56,1.56-1.26,1.89-2.09h7.33c-.4,1.83-1.18,3.46-2.34,4.89-1.16,1.43-2.63,2.54-4.39,3.34-1.76.8-3.79,1.2-6.08,1.2Z"/>
        <path d="M281.26,33.19v-5.83h19.55v5.83h-19.55ZM296.96,55.03c-2.76,0-4.99-.34-6.68-1.02-1.7-.68-2.94-1.83-3.72-3.44-.78-1.61-1.17-3.8-1.17-6.56v-24.04h7.43v24.34c0,1.3.34,2.29,1.02,2.97.68.68,1.65,1.02,2.92,1.02h4.04v6.73h-3.84Z"/>
        <path d="M303.85,33.24v-5.88h11.62v5.88h-11.62ZM310.58,24.66c-1.5,0-2.6-.39-3.32-1.17-.71-.78-1.07-1.77-1.07-2.97s.36-2.24,1.07-3.02c.71-.78,1.82-1.17,3.32-1.17s2.6.39,3.32,1.17c.71.78,1.07,1.79,1.07,3.02s-.36,2.19-1.07,2.97c-.71.78-1.82,1.17-3.32,1.17ZM307.49,54.68v-27.33h7.98v27.33h-7.98Z"/>
        <path d="M335.12,55.63c-2.36,0-4.41-.39-6.16-1.17-1.75-.78-3.2-1.84-4.36-3.17-1.16-1.33-2.03-2.83-2.59-4.51s-.85-3.42-.85-5.21v-.95c0-1.86.3-3.65.9-5.36.6-1.71,1.48-3.23,2.64-4.56,1.16-1.33,2.62-2.38,4.36-3.14,1.75-.76,3.75-1.15,6.01-1.15,2.46,0,4.64.47,6.53,1.42s3.41,2.27,4.54,3.96c1.13,1.7,1.76,3.64,1.89,5.83h-7.83c-.13-1.23-.62-2.27-1.47-3.12-.85-.85-2.07-1.27-3.67-1.27-1.33,0-2.44.33-3.32,1-.88.67-1.54,1.58-1.97,2.74-.43,1.16-.65,2.54-.65,4.14,0,1.46.2,2.79.6,3.96.4,1.18,1.04,2.09,1.92,2.74s2.04.97,3.47.97c1.06,0,1.97-.19,2.72-.57.75-.38,1.35-.91,1.8-1.6s.72-1.47.82-2.37h7.78c-.1,2.26-.73,4.25-1.89,5.96-1.16,1.71-2.71,3.04-4.64,3.99s-4.12,1.42-6.58,1.42Z"/>
      </g>
      <g>
        <path class="cls-1" d="M45.96,51.96l-20.4-12.65-12.03,6.98L0,39.03v-14.72l13.37-8.05,32.62,19.81,33.37-19.81,11.72,7.32v14.68l-12.61,7.43-10.74-5.96-21.77,12.23ZM25.6,36.96l20.41,12.66,21.72-12.2,10.71,5.95,10.63-6.27v-12.42l-9.73-6.08-33.35,19.8L13.36,18.61l-11.35,6.84v12.38l11.49,6.15,12.1-7.02Z"/>
        <polygon class="cls-1" points="62.91 24.56 45.55 14.57 28.77 24.55 27.75 22.82 45.53 12.25 63.91 22.81 62.91 24.56"/>
        <polygon class="cls-1" points="45.5 66.61 24.28 52.22 24.28 39.96 26.29 39.96 26.29 51.15 45.58 64.24 66.61 51.89 66.61 39.96 68.62 39.96 68.62 53.04 45.5 66.61"/>
        <rect x="33.16" y="-.74" width="2.01" height="13.47" transform="translate(3.34 21.9) rotate(-37.25)"/>
        <rect x="50.68" y="5" width="13.89" height="2.01" transform="translate(16.37 46.68) rotate(-50.55)"/>
      </g>
    </g>
  </g>
</svg>