<svg xmlns="http://www.w3.org/2000/svg" xml:space="preserve" id="contentwriting" x="0" y="0" enable-background="new 0 0 66 66" version="1.1" viewBox="0 0 66 66">
  <path fill="#faf9f5" d="M53.57,15.36v38.95c0,4.99-4.04,9.03-9.02,9.03h-32.8c-4.98,0-9.02-4.04-9.02-9.03V15.36H53.57z" class="colorf5f5fa svgShape"></path>
  <path fill="#eceae5" d="M53.57,30.65v23.67c0,4.99-4.04,9.03-9.02,9.03h-32.8c-4.98,0-9.02-4.04-9.02-9.03V15.36h16.26
			c-0.67,0.92-1.03,1.88-1.03,2.87c0,6.94,8.1,12.55,29.7,12.55C49.67,30.79,51.64,30.74,53.57,30.65z" class="colore5e8ec svgShape"></path>
  <path fill="#e7c151" d="M53.57,15.37v-3.69c0-4.98-4.04-9.02-9.02-9.02h-32.8c-4.98,0-9.02,4.04-9.02,9.02v3.69H53.57z" class="color51bfe7 svgShape"></path>
  <path fill="#898989" d="M53.57,11.67v3.69H2.73v-3.69c0-4.98,4.04-9.02,9.02-9.02h10.88c-3.52,0.89-5.6,1.98-5.6,3.16
			c0,2.98,11.24,5.39,27.44,5.39c6.13,0,4.28-0.35,8.99-0.94C53.53,10.72,53.57,11.19,53.57,11.67z" class="color3badd8 svgShape"></path>
  <path fill="#4b4b4b" d="M44.55,64.05h-32.8c-5.36,0-9.73-4.37-9.73-9.74V15.36c0-0.39,0.32-0.71,0.71-0.71h50.84
			c0.39,0,0.71,0.32,0.71,0.71v38.95C54.28,59.68,49.92,64.05,44.55,64.05z M3.44,16.07v38.25c0,4.59,3.73,8.32,8.31,8.32h32.8
			c4.58,0,8.31-3.73,8.31-8.32V16.07H3.44z" class="color434a54 svgShape"></path>
  <path fill="#4b4b4b" d="M53.57,16.08H2.73c-0.39,0-0.71-0.32-0.71-0.71v-3.69c0-5.37,4.36-9.73,9.73-9.73h32.8
			c5.37,0,9.73,4.36,9.73,9.73v3.69C54.28,15.76,53.96,16.08,53.57,16.08z M3.44,14.66h49.43v-2.99c0-4.59-3.73-8.32-8.32-8.32
			h-32.8c-4.59,0-8.32,3.73-8.32,8.32V14.66z" class="color434a54 svgShape"></path>
  <path fill="#faf9f5" d="M45.77 9.01L45.77 9.01c0 1-.81 1.8-1.8 1.8H32.03c-1 0-1.8-.81-1.8-1.8v0c0-1 .81-1.8 1.8-1.8h11.94C44.96 7.21 45.77 8.02 45.77 9.01zM13.11 9.01c0 1.21-.98 2.19-2.19 2.19-1.21 0-2.19-.98-2.19-2.19 0-1.21.98-2.19 2.19-2.19C12.13 6.82 13.11 7.8 13.11 9.01zM21.41 9.01c0 1.21-.98 2.19-2.19 2.19-1.21 0-2.19-.98-2.19-2.19 0-1.21.98-2.19 2.19-2.19C20.44 6.82 21.41 7.8 21.41 9.01z" class="colorf5f5fa svgShape"></path>
  <path fill="#4b4b4b" d="M43.97 11.52H32.03c-1.38 0-2.51-1.12-2.51-2.51s1.13-2.51 2.51-2.51h11.94c1.38 0 2.51 1.12 2.51 2.51S45.35 11.52 43.97 11.52zM32.03 7.92c-.6 0-1.1.49-1.1 1.1s.49 1.1 1.1 1.1h11.94c.6 0 1.1-.49 1.1-1.1s-.49-1.1-1.1-1.1H32.03zM10.92 11.91c-1.6 0-2.89-1.3-2.89-2.9 0-1.6 1.3-2.89 2.89-2.89s2.89 1.3 2.89 2.89C13.81 10.61 12.52 11.91 10.92 11.91zM10.92 7.53c-.82 0-1.48.66-1.48 1.48 0 .82.66 1.49 1.48 1.49s1.48-.67 1.48-1.49C12.4 8.19 11.74 7.53 10.92 7.53zM19.22 11.91c-1.6 0-2.89-1.3-2.89-2.9 0-1.6 1.3-2.89 2.89-2.89 1.6 0 2.89 1.3 2.89 2.89C22.12 10.61 20.82 11.91 19.22 11.91zM19.22 7.53c-.82 0-1.48.66-1.48 1.48 0 .82.66 1.49 1.48 1.49.82 0 1.48-.67 1.48-1.49C20.7 8.19 20.04 7.53 19.22 7.53z" class="color434a54 svgShape"></path>
  <path fill="#ffd454" d="M30.98,21.1v7.32c0,0.42-0.34,0.75-0.75,0.75H9.87c-0.42,0-0.75-0.34-0.75-0.75V21.1
				c0-0.42,0.34-0.75,0.75-0.75h20.36C30.64,20.34,30.98,20.68,30.98,21.1z" class="colorffcc54 svgShape"></path>
  <path fill="#ffc107" d="M30.97,27.98v0.45c0,0.42-0.34,0.75-0.75,0.75H9.87c-0.42,0-0.75-0.34-0.75-0.75V21.1
				c0-0.42,0.34-0.75,0.75-0.75h4.94c0,2.24,5.48,6.88,14.56,6.88c0.28,0,0.56,0,0.84-0.01C30.63,27.22,30.97,27.55,30.97,27.98z" class="colorf4ba43 svgShape"></path>
  <path fill="#4b4b4b" d="M30.22 29.88H9.87c-.81 0-1.46-.66-1.46-1.46V21.1c0-.81.66-1.46 1.46-1.46h20.36c.81 0 1.46.66 1.46 1.46v7.32C31.68 29.23 31.03 29.88 30.22 29.88zM9.87 21.05l-.05 7.37 20.4.05.05-7.37c0-.03-.02-.05-.05-.05H9.87zM38.51 34.6H17.96c-.39 0-.71-.32-.71-.71 0-.39.32-.71.71-.71h20.55c.39 0 .71.32.71.71C39.22 34.28 38.9 34.6 38.51 34.6zM38.51 38.85H9.11c-.39 0-.71-.32-.71-.71 0-.39.32-.71.71-.71h29.4c.39 0 .71.32.71.71C39.22 38.53 38.9 38.85 38.51 38.85zM33.37 43.3h-5.14c-.39 0-.71-.32-.71-.71 0-.39.32-.71.71-.71h5.14c.39 0 .71.32.71.71C34.08 42.99 33.76 43.3 33.37 43.3zM20.04 43.3H9.11c-.39 0-.71-.32-.71-.71 0-.39.32-.71.71-.71h10.93c.39 0 .71.32.71.71C20.75 42.99 20.43 43.3 20.04 43.3zM38.51 47.56H9.11c-.39 0-.71-.32-.71-.71 0-.39.32-.71.71-.71h29.4c.39 0 .71.32.71.71C39.22 47.24 38.9 47.56 38.51 47.56z" class="color434753 svgShape"></path>
  <g fill="#000000" class="color000000 svgShape">
    <path fill="#4b4b4b" d="M38.51,52.01H14.85c-0.39,0-0.71-0.32-0.71-0.71c0-0.39,0.32-0.71,0.71-0.71h23.66
			c0.39,0,0.71,0.32,0.71,0.71C39.22,51.69,38.9,52.01,38.51,52.01z" class="color434753 svgShape"></path>
  </g>
  <g fill="#000000" class="color000000 svgShape">
    <path fill="#4b4b4b" d="M19.75,56.26H9.11c-0.39,0-0.71-0.32-0.71-0.71c0-0.39,0.32-0.71,0.71-0.71h10.64c0.39,0,0.71,0.32,0.71,0.71
			C20.46,55.95,20.14,56.26,19.75,56.26z" class="color434753 svgShape"></path>
  </g>
  <g fill="#000000" class="color000000 svgShape">
    <path fill="#4b4b4b" d="M47.77 23.84H37.38c-.39 0-.71-.32-.71-.71 0-.39.32-.71.71-.71h10.39c.39 0 .71.32.71.71C48.47 23.52 48.16 23.84 47.77 23.84zM47.77 27.4H37.38c-.39 0-.71-.32-.71-.71 0-.39.32-.71.71-.71h10.39c.39 0 .71.32.71.71C48.47 27.08 48.16 27.4 47.77 27.4z" class="color434753 svgShape"></path>
  </g>
  <g fill="#000000" class="color000000 svgShape">
    <path fill="#ffd454" d="M51.04,49.66c-0.56,0.83-1.34,1.5-2.26,1.92l-1.29,0.59l-2.94,1.35c-0.62,0.29-1.34-0.16-1.35-0.85
				l-0.05-3.23l-0.02-1.42c-0.02-1.01,0.25-2,0.76-2.86L51.04,49.66z" class="colorffcc54 svgShape"></path>
    <path fill="#ffc107" d="M48.85,51.55c-0.02,0.01-0.04,0.02-0.07,0.03l-1.29,0.59l-2.94,1.35c-0.62,0.29-1.34-0.16-1.35-0.85
				l-0.05-3.23l-0.02-1.42c-0.02-1.01,0.25-2,0.76-2.86l2.95,1.86C46.98,48.68,47.67,50.28,48.85,51.55z" class="colorf4ba43 svgShape"></path>
    <path fill="#4b4b4b" d="M47.49,52.17l-2.94,1.35c-0.62,0.29-1.34-0.16-1.35-0.85l-0.05-3.23c0.91-0.23,1.9-0.1,2.76,0.44
				C46.77,50.41,47.31,51.25,47.49,52.17z" class="color434753 svgShape"></path>
    <path fill="#efc855" d="M60.77,34.1l2.16-3.43c0.65-1.04,0.34-2.41-0.7-3.07l-3.41-2.15c-1.04-0.65-2.41-0.34-3.07,0.7l-2.16,3.43
				L60.77,34.1z" class="coloref5564 svgShape"></path>
    <path fill="#dbb545" d="M61.71,32.59l-0.95,1.5l-7.17-4.52l2.16-3.43c0.65-1.04,2.03-1.35,3.07-0.7l0.77,0.48
				c-0.29,0.18-0.53,0.42-0.71,0.71C57.85,28.28,59.12,30.93,61.71,32.59z" class="colordb4554 svgShape"></path>
    <path fill="#ceb569" d="M43.8,45.3c0.03-0.05,0.05-0.1,0.08-0.15l7.16,4.51c-0.03,0.05-0.07,0.09-0.1,0.14l0,0
				c0.07-0.1,0.14-0.19,0.2-0.29l9.62-15.41l-7.17-4.52l-9.62,15.41C43.91,45.09,43.85,45.19,43.8,45.3L43.8,45.3z" class="colora0ce69 svgShape"></path>
    <path fill="#eceae5" d="M50.94 49.8c.02-.03.03-.05.05-.07C50.98 49.75 50.96 49.78 50.94 49.8L50.94 49.8zM50.99 49.73c.02-.02.03-.05.05-.07l0 0C51.03 49.68 51.01 49.71 50.99 49.73z" class="colore5e8ec svgShape"></path>
    <path fill="#bfa34f" d="M51.15,49.51c-0.03,0.05-0.07,0.1-0.1,0.15l-7.16-4.51c0.03-0.05,0.06-0.11,0.09-0.16l9.62-15.41l3.97,2.5
				c-0.64,0.69-1.25,1.49-1.82,2.38c-7.66,12.16-2.71,7.75-1.19,8.71c0.12,0.08,0.25,0.14,0.38,0.18L51.15,49.51z" class="color8abf4f svgShape"></path>
    <path fill="#4b4b4b" d="M50.94,50.51c-0.15,0-0.3-0.05-0.42-0.14c-0.12-0.09-0.21-0.22-0.25-0.36L43.9,46
				c-0.16,0.03-0.33-0.01-0.48-0.1l0,0c-0.32-0.2-0.42-0.61-0.25-0.94c0.06-0.12,0.13-0.23,0.2-0.35l9.62-15.41
				c0.1-0.16,0.26-0.27,0.44-0.31c0.18-0.04,0.38-0.01,0.53,0.09l7.17,4.52c0.33,0.21,0.43,0.64,0.22,0.97l-9.62,15.41
				c-0.07,0.12-0.15,0.22-0.23,0.33c-0.11,0.15-0.28,0.26-0.47,0.29C51.01,50.51,50.98,50.51,50.94,50.51z M44.85,44.92l5.98,3.77
				l8.97-14.37l-5.98-3.77L44.85,44.92z M43.18,44.96l0.61,0.34L43.18,44.96z" class="color434753 svgShape"></path>
    <path fill="#4b4b4b" d="M60.77 34.8c-.13 0-.26-.03-.38-.11l-7.17-4.52c-.16-.1-.27-.26-.31-.44-.04-.18-.01-.37.09-.53l2.16-3.43c.42-.66 1.07-1.12 1.83-1.3.76-.17 1.55-.04 2.21.38L62.61 27c.66.42 1.12 1.07 1.3 1.83.17.76.04 1.55-.38 2.21l-2.16 3.43C61.23 34.68 61 34.8 60.77 34.8zM54.57 29.35l5.98 3.77 1.78-2.83c.22-.34.29-.75.2-1.14-.09-.39-.33-.73-.67-.95l-3.41-2.15c-.34-.22-.75-.29-1.14-.2-.4.09-.73.33-.95.67L54.57 29.35zM44.16 54.31c-.31 0-.61-.09-.88-.26-.48-.3-.77-.81-.78-1.38l-.08-4.65c-.02-1.13.28-2.25.85-3.23.1-.17.26-.28.44-.33.19-.05.38-.01.54.09l7.16 4.51c.16.1.28.27.32.45.04.19 0 .38-.11.54-.64.94-1.52 1.69-2.55 2.16l-4.23 1.94C44.63 54.26 44.39 54.31 44.16 54.31zM44.17 46.16c-.23.58-.35 1.21-.34 1.84l.08 4.65c0 .12.07.18.12.2.04.03.13.06.23.02l4.23-1.94c.57-.26 1.08-.63 1.51-1.1L44.17 46.16z" class="color434753 svgShape"></path>
  </g>
</svg>
