<svg xmlns="http://www.w3.org/2000/svg" viewBox="0 0 128 128" id="Quote">
  <path fill="#000000" d="M126.74,40.77C124.1,28.26,114.23,13.45,98.79,10.47a27.22859,27.22859,0,0,0-21.71,5.35,27.68951,27.68951,0,0,0,.12,44.41,27.26937,27.26937,0,0,0,25.5,4.32,1.32708,1.32708,0,0,1,1.25.19,1.36027,1.36027,0,0,1,.55,1.18c-1.25,27.63-26.04,38.44-31,40.33a3.65875,3.65875,0,0,0-2.32,3.93l.63,4.65a3.72946,3.72946,0,0,0,4.99,2.92C133.37,94.78,129.33,53.02,126.74,40.77Zm-51.02,73.1-.54-3.98c5.9-2.3,31.97-14.1,33.32-43.79a5.35337,5.35337,0,0,0-7.11-5.33,23.28266,23.28266,0,0,1-21.76-3.72,23.70121,23.70121,0,0,1-.11-38.06,23.24716,23.24716,0,0,1,18.51-4.6c13.65,2.64,22.42,15.95,24.79,27.2C125.24,53.05,128.97,92.04,75.72,113.87Z" class="color2d4356 svgShape"></path>
  <path fill="#ffc107" d="M75.72,113.87l-.54-3.98c5.9-2.3,31.97-14.1,33.32-43.79a5.35337,5.35337,0,0,0-7.11-5.33,23.28266,23.28266,0,0,1-21.76-3.72,23.70121,23.70121,0,0,1-.11-38.06,23.24716,23.24716,0,0,1,18.51-4.6c13.65,2.64,22.42,15.95,24.79,27.2C125.24,53.05,128.97,92.04,75.72,113.87Z" class="colorfc785e svgShape"></path>
  <path fill="#000000" d="M87.29272 22.00238A2.00015 2.00015 0 1 0 88.73 25.73553c.07477-.0293 7.44562-2.78473 11.73273 2.51807a2.00077 2.00077 0 1 0 3.1131-2.51416C97.47717 18.1969 87.70605 21.84314 87.29272 22.00238zM60.74 40.77C58.1 28.26 48.23 13.45 32.79 10.47a27.22859 27.22859 0 0 0-21.71 5.35 27.68951 27.68951 0 0 0 .12 44.41 27.26937 27.26937 0 0 0 25.5 4.32 1.32708 1.32708 0 0 1 1.25.19 1.36027 1.36027 0 0 1 .55 1.18c-1.25 27.63-26.04 38.44-31 40.33a3.65875 3.65875 0 0 0-2.32 3.93l.63 4.65a3.72946 3.72946 0 0 0 4.99 2.92C67.37 94.78 63.33 53.02 60.74 40.77zM9.72 113.87l-.54-3.98c5.9-2.3 31.97-14.1 33.32-43.79a5.35337 5.35337 0 0 0-7.11-5.33 23.28266 23.28266 0 0 1-21.76-3.72 23.70121 23.70121 0 0 1-.11-38.06 23.24716 23.24716 0 0 1 18.51-4.6c13.65 2.64 22.42 15.95 24.79 27.2C59.24 53.05 62.97 92.04 9.72 113.87z" class="color2d4356 svgShape"></path>
  <path fill="#ffc107" d="M9.72,113.87l-.54-3.98c5.9-2.3,31.97-14.1,33.32-43.79a5.35337,5.35337,0,0,0-7.11-5.33,23.28266,23.28266,0,0,1-21.76-3.72,23.70121,23.70121,0,0,1-.11-38.06,23.24716,23.24716,0,0,1,18.51-4.6c13.65,2.64,22.42,15.95,24.79,27.2C59.24,53.05,62.97,92.04,9.72,113.87Z" class="colorfc785e svgShape"></path>
  <path fill="#000000" d="M21.29272,22.00238A2.00015,2.00015,0,1,0,22.73,25.73553c.07477-.0293,7.44556-2.78473,11.73267,2.518a2.0545,2.0545,0,0,0,2.81464.299,1.99994,1.99994,0,0,0,.29852-2.813C31.47717,18.1969,21.70605,21.84314,21.29272,22.00238Z" class="color2d4356 svgShape"></path>
  <path fill="#f9f0d7" d="M57.98,54.14a56.72584,56.72584,0,0,0-1.16-10.55c-2.37-11.25-11.14-24.56-24.79-27.2a23.24716,23.24716,0,0,0-18.51,4.6A24.03519,24.03519,0,0,0,4.06,38.32c-.02.23-.03.45-.03.67a23.5877,23.5877,0,0,1,9.49-20,23.24716,23.24716,0,0,1,18.51-4.6c13.65,2.64,22.42,15.95,24.79,27.2A56.65424,56.65424,0,0,1,57.98,54.14Z" opacity=".3" class="colorf9dbd7 svgShape"></path>
  <path fill="#a58b3f" d="M108.5 64.1c-.01.33-.03.65-.06.97a5.3333 5.3333 0 0 0-7.05-4.3 23.28266 23.28266 0 0 1-21.76-3.72 24.01575 24.01575 0 0 1-9.6-20.06 24.1 24.1 0 0 0 9.6 18.06 23.28266 23.28266 0 0 0 21.76 3.72 5.35337 5.35337 0 0 1 7.11 5.33zM75.72 113.87l-.54-3.98c.08-.03.17-.07.26-.1l.28 2.08c40.26-16.5 47.95-42.81 48.26-59.62C124.24 68.9 117.61 96.7 75.72 113.87z" opacity=".5" class="colora54b3f svgShape"></path>
  <path fill="#f9f0d7" d="M123.98,54.14a56.72584,56.72584,0,0,0-1.16-10.55c-2.37-11.25-11.14-24.56-24.79-27.2a23.24716,23.24716,0,0,0-18.51,4.6,24.03519,24.03519,0,0,0-9.46,17.33c-.02.23-.03.45-.03.67a23.5877,23.5877,0,0,1,9.49-20,23.24716,23.24716,0,0,1,18.51-4.6c13.65,2.64,22.42,15.95,24.79,27.2A56.65425,56.65425,0,0,1,123.98,54.14Z" opacity=".3" class="colorf9dbd7 svgShape"></path>
  <path fill="#a58b3f" d="M42.5 64.1c-.01.33-.03.65-.06.97a5.3333 5.3333 0 0 0-7.05-4.3 23.28266 23.28266 0 0 1-21.76-3.72 24.01575 24.01575 0 0 1-9.6-20.06 24.1 24.1 0 0 0 9.6 18.06 23.28266 23.28266 0 0 0 21.76 3.72A5.35337 5.35337 0 0 1 42.5 64.1zM9.72 113.87l-.54-3.98c.08-.03.17-.07.26-.1l.28 2.08c40.26-16.5 47.95-42.81 48.26-59.62C58.24 68.9 51.61 96.7 9.72 113.87z" opacity=".5" class="colora54b3f svgShape"></path>
</svg>
