<svg xmlns="http://www.w3.org/2000/svg" id="Seo" enable-background="new 0 0 68 68" viewBox="0 0 68 68">
  <g id="_x36_6_2_" fill="#000000" class="color000000 svgShape">
    <g id="_x34_7" fill="#000000" class="color000000 svgShape">
      <circle cx="43.884" cy="24.116" r="21.12" fill="#f9cf53" class="colorf95353 svgShape"></circle>
      <circle cx="43.884" cy="24.116" r="14.424" fill="#ffffff" class="colorffffff svgShape"></circle>
      <path fill="#efefef" d="M32.4008598,41.8428192l-5.3526058,5.3526077l-6.2432995-6.2433014l5.3526058-5.3526077
				c0.7868252,1.2191887,1.7207985,2.3777885,2.7930508,3.4500427
				C30.0228634,40.1218109,31.1815681,41.0558891,32.4008598,41.8428192z" class="colorefefef svgShape"></path>
      <path fill="#ffc107" d="M29.0068722,50.8834991L17.3546963,62.535675c-3.2833261,3.2833252-8.6066513,3.2833252-11.8899784,0
				l-0.0000119-0.0000114c-3.2833271-3.283329-3.2833271-8.6066513,0-11.8899803l11.6521759-11.6521759
				c0.4775753-0.4775734,1.2518768-0.4775734,1.7294521,0l10.1605377,10.1605377
				C29.4844475,49.6316223,29.4844475,50.4059219,29.0068722,50.8834991z" class="colorffd550 svgShape"></path>
    </g>
    <g id="_x36_6_1_" fill="#000000" class="color000000 svgShape">
      <path d="M32.9777222,35.022274c6.0116234,6.0126038,15.7991447,6.0148201,21.8129883,0
			c6.0241165-6.0241165,6.0292397-15.7847576,0-21.8129883c-6.0199699-6.0209794-15.7863007-6.0266857-21.8129883,0
			C26.9498634,19.2371464,26.9469662,28.9925308,32.9777222,35.022274z M34.3917847,14.6233492
			c5.2398796-5.2398796,13.7390823-5.2447701,18.9848633,0c5.2432213,5.2432222,5.2461548,13.7387075,0,18.9848633
			c-5.234375,5.234375-13.7504883,5.2338867-18.9848633,0C29.1449852,28.361414,29.1436081,19.8715267,34.3917847,14.6233492z" fill="#000000" class="color000000 svgShape"></path>
      <path d="M18.0617065,63.2424889l11.6523438-11.6518555c0,0,0,0,0.0004883,0
			c0.8662109-0.8666992,0.8662109-2.2768555-0.0004883-3.1435547l-1.251709-1.2519531l4.1037598-4.1030273
			c8.6624298,5.1629028,19.7591972,3.8643379,26.9589844-3.3354492c8.6245117-8.6245098,8.6245117-22.6577129,0-31.2817383
			c-8.6240234-8.6240234-22.6577148-8.625-31.2817383,0c-7.2548046,7.2548046-8.4960499,18.3581467-3.34021,26.9648438
			l-4.0981445,4.0981445l-1.2515869-1.2514648c-0.8662109-0.8671875-2.2773438-0.8666992-3.1435547,0L4.7575073,49.9387779
			c-3.6679688,3.6679688-3.6679688,9.6357422,0,13.3041992C8.4255924,66.9100876,14.3935137,66.9106827,18.0617065,63.2424889z
			 M29.6574097,9.8889742c7.8456993-7.8447218,20.6086617-7.8439746,28.4536133,0
			c7.8447266,7.8447275,7.8447266,20.6088867,0,28.4536133c-7.889801,7.8906479-20.6603432,7.7913513-28.4536133,0
			C21.8623886,30.5437012,21.7294216,17.8169632,29.6574097,9.8889742z M26.0148315,37.1565514
			c0.3093243,0.422966,1.345459,1.717041,2.2285156,2.6000977c0.885149,0.8853722,2.3028851,2.0115471,2.6005859,2.2290039
			l-3.7957764,3.7954102l-4.8291016-4.8291016L26.0148315,37.1565514z M6.1715698,51.3528404l11.6523438-11.6523438
			c0.043457-0.043457,0.1005859-0.0654297,0.1577148-0.0654297s0.1142578,0.0219727,0.1577148,0.0654297l1.9580078,1.9580078
			c0.0002441,0,0.0002441,0.0004883,0.0004883,0.0009766l6.2431641,6.2431641c0.0002441,0,0.0004883,0,0.0007324,0
			l1.958252,1.9584961c0.0869141,0.0869141,0.0869141,0.2285156,0,0.3154297L16.647644,61.8284264
			c-2.8876953,2.8876991-7.5874023,2.8876991-10.4760742,0C3.2838745,58.940731,3.2838745,54.2405357,6.1715698,51.3528404z" fill="#000000" class="color000000 svgShape"></path>
      <path d="M35.6010132 24.3411236c.3303223.1289063.7637939.2626953 1.2880859.3984375.4023438.1064453.6967773.1923828.901001.2641602.1947021.0668945.3582764.1601563.487915.2758789.1121826.0991211.1665039.2197266.1665039.3701172 0 .2387695 0 .9638672-1.5458984.9638672-.6550293 0-1.277832-.1289063-1.8498535-.3847656-.2209473-.0966797-.4873047-.0522461-.6461182.1186523-.1009521.1098633-.1522217.2412109-.1522217.3901367 0 .1162109.0351563.2260742.1049805.3261719.0693359.0981445.1577148.1694336.2592773.2114258.734375.3178711 1.5322266.4790039 2.3710938.4790039.5092773 0 .9672852-.0859375 1.3614502-.2543945.3977051-.1708984.713501-.4155273.9381104-.7260742.2250977-.3144531.3391113-.6723633.3391113-1.0654297 0-.4750977-.1253662-.8623047-.3720703-1.1489258-.2387695-.2768555-.5301514-.4833984-.866333-.6147461-.3188477-.1254883-.7423096-.2519531-1.2593994-.3764648-.3839111-.0869141-.6938477-.171875-.920166-.2519531-.208252-.0727539-.3826904-.1767578-.5175781-.3056641-.1218262-.1171875-.1809082-.2661133-.1809082-.4575195 0-.2958984.1330566-.5195313.4072266-.6855469.2937012-.1777344.6865234-.2685547 1.1679688-.2685547.5175781 0 1.0263672.0849609 1.505249.2509766.0842285.0332031.1534424.0498047.2132568.0498047.1611328 0 .2990723-.0620117.3969727-.1801758.0955811-.1108398.144043-.2387695.144043-.3798828 0-.2602539-.1291504-.4438477-.371582-.5327148-.5893555-.2182617-1.2574463-.3295898-1.9853516-.3295898-.5499268 0-1.0306396.0947266-1.4289551.2822266-.4035645.1899414-.7141113.4501953-.9224854.7739258-.2095947.324707-.315918.6899414-.315918 1.0878906 0 .4584961.1314697.8320313.3900146 1.112793C34.9555054 24.0017681 35.2553101 24.2058697 35.6010132 24.3411236zM41.2677612 27.6575298h3.8933105c.1557617 0 .2912598-.0537109.4023438-.1601563.1098633-.1049805.1678467-.2436523.1678467-.3999023 0-.1567383-.057251-.2963867-.1660156-.4047852-.1104736-.1103516-.246582-.1660156-.4041748-.1660156h-3.2938232v-1.8500977h2.944458c.1569824 0 .2919922-.0537109.4024658-.1586914.1098633-.1054688.1678467-.2451172.1678467-.4013672 0-.1577148-.0556641-.2924805-.1660156-.4047852-.1105957-.1098633-.2467041-.1660156-.4042969-.1660156h-2.944458v-1.840332h3.2938232c.1569824 0 .2919922-.0537109.4023438-.1591797.1098633-.1049805.1678467-.2446289.1678467-.4008789 0-.1577148-.055542-.2929688-.1660156-.4047852-.1104736-.1103516-.246582-.1660156-.4041748-.1660156h-3.8933105c-.1635742 0-.3087158.0620117-.4204102.1777344-.1123047.1171875-.1695557.2578125-.1695557.4213867v5.894043c0 .1621094.0592041.3066406.1707764.4179688C40.9608765 27.5999126 41.102356 27.6575298 41.2677612 27.6575298zM48.0940552 27.2874126c.5308838.309082 1.1578369.4667969 1.8630371.4667969s1.3309326-.1577148 1.8587646-.4682617c.5310059-.309082.9489746-.746582 1.2426758-1.296875.2915039-.546875.4460449-1.1762695.4597168-1.875-.0136719-.6948242-.1682129-1.324707-.4597168-1.8701172-.2944336-.5517578-.7124023-.9887695-1.2426758-1.2983398-.5301514-.3105469-1.1552734-.4682617-1.8587646-.4682617-.7027588 0-1.3297119.1577148-1.8630371.4672852-.5344238.3105469-.9523926.7460938-1.2425537 1.2944336-.2884521.543457-.4414063 1.1738281-.4550781 1.8798828.0136719.7006836.166626 1.331543.4550781 1.875C47.1422729 26.5418072 47.5602417 26.9768658 48.0940552 27.2874126zM47.8707886 22.824522c.1862793-.3730469.4597168-.6713867.8120117-.8886719.3529053-.2172852.7817383-.3271484 1.274292-.3271484.4866943 0 .9135742.1098633 1.2706299.3271484.3553467.2172852.6300049.515625.8164063.8886719.1885986.3793945.284668.8144531.284668 1.2919922 0 .4790039-.095459.9121094-.284668 1.2910156-.1864014.3710938-.4610596.6708984-.8168945.8896484-.3553467.2163086-.782959.3261719-1.2701416.3261719-.4937744 0-.9224854-.1098633-1.2736816-.3261719-.3529053-.21875-.6263428-.5170898-.8126221-.8896484-.1893311-.3789063-.2849121-.8120117-.2849121-1.2910156C47.5858765 23.6389751 47.6820679 23.2039165 47.8707886 22.824522z" fill="#000000" class="color000000 svgShape"></path>
    </g>
  </g>
</svg>
