<svg xmlns="http://www.w3.org/2000/svg" xml:space="preserve" id="SocialMedia" x="0" y="0" enable-background="new 0 0 56 56" version="1.1" viewBox="0 0 56 56">
  <g id="_x34_7" fill="#000000" class="color000000 svgShape">
    <g fill="#000000" class="color000000 svgShape">
      <path fill="#ffc107" d="M43.4365959,34.0140266l-0.5094414,10.3182411c-0.0216331,0.4010201-0.2817421,0.7587051-0.65028,0.9212456
			l-17.6666908,5.4083824c-0.4118671,0.1734543-0.8996124,0.0758781-1.2030544-0.2601128l-9.4077835-6.9040985
			c-0.1843014-0.2059326-0.2818108-0.4551964-0.2818108-0.7261581v-6.9908257
			c0.997407-0.9985161-3.6131563,3.6171761,9.7546215-9.7654705l0.6178017-0.0324802
			c-0.2818108,0.292593-0.3468399,0.7478561-0.1084251,1.1163273c0.6937542,1.0893917-2.513155-3.9463768,6.784893,10.6542339
			c0.2276306,0.3576851,0.671978,0.5202255,1.0729961,0.3685341L43.4365959,34.0140266z" class="colore8e8e8 svgShape"></path>
    </g>
    <g fill="#000000" class="color000000 svgShape">
      <path fill="#ffc107" d="M39.2794075,22.0174084c-0.5356064,0.4821014-0.7796669,0.6064987-0.9699707,0.7399902
			c-2.9613953,0.6302376-4.1852913,0.8907852-4.0400391,0.8599854c-1.5472527-0.2242031-2.3073025-0.9855061-2.8999615-1.3099976
			c2.7502689,1.018919,5.6439953-0.1992531,6.9600201-2.3899536c0.0099487-0.0200195,0.0199585-0.0300293,0.0199585-0.0400391
			c1.7949715-2.5112038,1.1759415-6.6962404-1.7699585-8.4400015c0.2087097,0.096077,1.8174934,0.3495598,3.2999878,2.0599976
			C42.0134315,16.0129719,41.6389198,19.8547039,39.2794075,22.0174084z" class="colore8e8e8 svgShape"></path>
    </g>
    <g fill="#000000" class="color000000 svgShape">
      <path fill="#ffc107" d="M24.7944183,14.7757435l-0.5852528,0.8237343c-1.3873558,1.8534012-3.9993973,2.5036831-6.3405437,1.5932884
			c-2.8721552-1.116394-4.4111996-4.324604-3.4249277-7.1751261c0.713995-2.0367632,2.0550184-2.7991686,2.1568441-2.9047017
			c-2.1660681,2.7251782-0.9544563,7.2285438,2.6445904,8.6274452
			C21.2394352,16.5207214,23.3637333,16.0872211,24.7944183,14.7757435z" class="colore8e8e8 svgShape"></path>
    </g>
    <g fill="#000000" class="color000000 svgShape">
      <polygon points="32.615 14.144 31.193 18.586 36.138 17.748" fill="#000000" class="color000000 svgShape"></polygon>
      <path d="M23.6685696,29.9876232v20.9658222c0,0.3304901,0.5,0.3307724,0.5,0V29.9876232
			C24.1685696,29.657135,23.6685696,29.6568527,23.6685696,29.9876232z" fill="#000000" class="color000000 svgShape"></path>
      <path d="M51.9722786,29.5813732l-4.505188-5.3085938c2.5098572,0.5499954,2.9251633,0.6591797,3.0256958,0.6591797
			c0.257679,0,0.3444672-0.3429737,0.1230469-0.4677734l-5.7208252-3.2234497
			c-0.031311-0.0480957-0.0756836-0.0869751-0.1355591-0.1033325l-3.9900513-1.2600098
			c-0.194046,0.5181198-0.89151,1.6909122-1.9174805,2.49823c-0.2523575,0.0545521-5.4148827,1.1705074-5.1253052,1.1079102
			c-0.1411667-0.0358791-0.6195908-0.0880432-1.4102783-0.5681152l-0.2192383-0.1411133
			c2.8608093,0.6565857,5.538765-0.9048824,6.7267456-3.1997681c1.2431641-2.3271484,0.9609375-5.2011709-0.7041016-7.1513662
			c-3.7524223-4.3620872-10.7227612-1.3040075-10.6469707,4.4955435c-29.2123356,4.425642-5.9383621,0.8967476-15.5250864,2.3584595
			c-0.161459,0.0398483,0.5293236-0.4862671-7.9851685,6.9516602c-0.2542682,0.1948032-0.2845452,0.5721207-0.0654297,0.8115234
			l8.6279297,9.4404316c0.2090368,0.2278671,0.5834742,0.2419205,0.8271484,0.0185547l10.2255869-10.236269l0.0779419-0.0038452
			c-0.104248,0.3207397-0.0785522,0.6755981,0.1144409,0.9735107l6.7851562,10.6542988
			c0.2909718,0.4585381,0.8669758,0.659729,1.3671875,0.4697266l19.5517559-6.9248066
			C52.2529755,31.1674824,52.4936523,30.2001228,51.9722786,29.5813732z M29.8961086,12.3909445
			c2.334177-2.1677532,5.8226452-1.9929361,7.8437481,0.3574219c1.5322266,1.7949219,1.7900391,4.444335,0.6416016,6.5917959
			c0,0.0009766-0.0009766,0.0019531-0.0009766,0.0029297c-1.2510109,2.421051-4.1905632,3.7930164-6.91992,2.7314453
			C27.6783504,20.66959,26.6810417,15.3808117,29.8961086,12.3909445z M13.0064592,36.1380157
			c-0.0273438,0.0253906-0.0878906,0.0341797-0.1123047,0.0048828L4.2662249,26.702467l0.0136719-0.0869141l7.7568359-6.7988281
			l0.0513306,0.0291138l10.9729013,6.2279053L13.0064592,36.1380157z M51.3121223,30.9583263
			c-0.0009766,0.0009766-0.0019531,0.0009766-0.0029297,0.0019531l-19.5585918,6.9277363
			c-0.28125,0.1015625-0.6064453-0.0058594-0.7734375-0.2695312l-6.7861328-10.6552753
			c-0.1650391-0.2548828-0.1328125-0.5869141,0.0917969-0.8212891c0.0061035-0.0073853,0.0164185-0.0119019,0.0230713-0.0189819
			c0.078064-0.0783691,0.1747437-0.1378784,0.3035278-0.1655273c3.1777039-0.6839046,18.5313702-3.9890251,19.5942974-4.2178345
			c0.2002525-0.0435314,0.4748955,0.0341301,0.6464844,0.2216797c7.6776505,9.0481033,6.5874939,7.7633533,6.7402344,7.9433594
			C51.8875237,30.2558918,51.7546921,30.8100986,51.3121223,30.9583263z" fill="#000000" class="color000000 svgShape"></path>
      <path d="M19.1539211,15.9729757c3.0244312,1.1834726,6.2583714-0.3141918,7.3066406-3.2705078
			c0-0.0009766,0.0009766-0.0019531,0.0009766-0.0019531c1.0244141-2.9609375-0.5771484-6.3261719-3.5703125-7.5009766
			c-2.3818359-0.9199219-4.9833984-0.2226562-6.4794922,1.7402344l0.0029297,0.0019531
			c-0.2196655,0.2440724-0.5964165,0.8576832-0.8310556,1.53125C14.565053,11.4475851,16.167593,14.8128195,19.1539211,15.9729757z
			 M16.0562649,8.6360617c0.9177094-2.6334276,3.8360023-4.0608587,6.6523438-2.9707031
			c3.666069,1.4393106,4.8375225,6.2542877,1.9169922,8.9257812c-1.4072266,1.2919922-3.4345703,1.6425772-5.2900391,0.9160156
			C16.5953274,14.4427023,15.1236467,11.3596945,16.0562649,8.6360617z" fill="#000000" class="color000000 svgShape"></path>
      <path d="M19.6212063 9.7887716l.6260986 1.6374512L19.5259914 11.55165c-.3829174.0667534-.3294163.5037642.069458.4341431l.8079224-.1404419c.4199448 1.0399313.4306984 1.2125425.5599365 1.2727051.191.0960121.4659157-.0113468.3658447-.3000488l-.4083862-1.0626221 1.2615967-.2194214c.4461231 1.1229753.4138165 1.3561831.7575073 1.2962036.4084377-.0708399.0282784-.5017395-.2528687-1.3839722.1816101-.0768471.7425041-.0099392.6896973-.3394165-.0258427-.1612701-.1612759-.1986828-.3207397-.1709595l-.5250244.0913086-.6337891-1.6361694.7264404-.1262817c.3455181-.0601063.2852383-.359581.1506958-.4169922-.1354523-.0631227-.2663746.0064754-1.027771.1256714L21.342947 7.9263449c-.1432705-.3284168-.6429768-.2257023-.4873047.1305542l.3811646 1.0070801-1.2692261.2207031-.3984985-1.0498657c-.1192703-.2946038-.4408016-.2073307-.5003662-.0818481-.0760155.1518641.0765915.3433495.3942261 1.2194824l-.4384155.0762329c-.3492374.0608826-.2783298.3439674-.1543579.4104004C18.9249783 9.8905172 19.1572762 9.8565693 19.6212063 9.7887716zM21.395071 9.4802999l.6311646 1.6365967-1.2615356.2193604-.638855-1.6352539L21.395071 9.4802999zM14.9341936 29.3450451l-4.3955078-3.5029297c-.2599525-.2065697-.5697155.1848526-.3125.390625l4.3955078 3.5029297C14.8812685 29.9411678 15.192771 29.5519085 14.9341936 29.3450451zM45.9595833 27.8577404L33.5279427 31.430006c-.3142891.0901279-.1829567.5742779.1386719.4804688l12.4316406-3.5722656C46.4177094 28.246603 46.274971 27.7624435 45.9595833 27.8577404zM5.7740374 18.5374279c.1271234.0126839 2.8805046.2866001 2.9931641.2978516.3151588 0 .3389435-.4677925.0244141-.4990234l-2.96875-.296875C5.5040455 17.997797 5.4366989 18.5039349 5.7740374 18.5374279zM8.9097795 17.4475842c.2150698.236578.5948353-.0912704.3671875-.3378906l-2.7314453-2.968749c-.2207222-.2442036-.592226.094099-.3671875.3378906L8.9097795 17.4475842zM11.2349749 17.2434826l-.5341797-1.95996c-.0863991-.3175745-.5694618-.1890726-.4824219.1308594l.5341797 1.95996C10.8393841 17.693655 11.3217888 17.5625839 11.2349749 17.2434826zM44.3414192 17.3323498l-.3955078-1.9462881c-.0674095-.3207846-.555912-.2264452-.4902344.0996094l.3955078 1.9462881C43.9177017 17.753891 44.4070778 17.658287 44.3414192 17.3323498zM45.3824348 18.2132092l1.9160156-2.2509756c.2133408-.2504425-.1627922-.5751123-.3808594-.3242188l-1.9160156 2.2509756C44.788002 18.1397095 45.1647377 18.4650574 45.3824348 18.2132092zM46.3785286 19.2307873c-.3240395 0-.33564.4884567-.0078125.5.1905212.0063019-.6901627-.0229511 1.8632812.0615234.3240433 0 .33564-.4884567.0078125-.5l-1.8554688-.0615234C46.384388 19.2307873 46.3814583 19.2307873 46.3785286 19.2307873z" fill="#000000" class="color000000 svgShape"></path>
    </g>
  </g>
</svg>
