<svg xmlns="http://www.w3.org/2000/svg" enable-background="new 0 0 64 64" viewBox="0 0 64 64" id="WebsiteDevelopment">
  <rect width="53.801" height="35" x="5.1" y="18" fill="#ffffff" class="colorffffff svgShape"></rect>
  <rect width="51.9" height="33.9" x="7" y="20" fill="#f1f0ec" class="coloreceff1 svgShape"></rect>
  <rect width="52" height="8" x="6" y="10" fill="#ffffff" class="colorffffff svgShape"></rect>
  <rect width="51" height="7" x="7" y="11" fill="#ffc107" class="colorff8a80 svgShape"></rect>
  <rect width="14" height="3" x="41.5" y="12.5" fill="#ffffff" class="colorffffff svgShape"></rect>
  <path fill="#434343" d="M55,13v2H42v-2H55L55,13z M56,12h-1H42h-1v1v2v1h1h13h1v-1v-2V12L56,12z" class="color37474f svgShape"></path>
  <rect width="3" height="3" x="20.5" y="12.5" fill="#ffffff" class="colorffffff svgShape"></rect>
  <path fill="#434343" d="M23,13v2h-2v-2H23L23,13z M24,12h-1h-2h-1v1v2v1h1h2h1v-1v-2V12L24,12z" class="color37474f svgShape"></path>
  <g fill="#000000" class="color000000 svgShape">
    <rect width="3" height="3" x="14.5" y="12.5" fill="#ffffff" class="colorffffff svgShape"></rect>
    <path fill="#434343" d="M17,13v2h-2v-2H17L17,13z M18,12h-1h-2h-1v1v2v1h1h2h1v-1v-2V12L18,12z" class="color37474f svgShape"></path>
  </g>
  <g fill="#000000" class="color000000 svgShape">
    <rect width="3" height="3" x="8.5" y="12.5" fill="#ffffff" class="colorffffff svgShape"></rect>
    <path fill="#434343" d="M11,13v2H9v-2H11L11,13z M12,12h-1H9H8v1v2v1h1h2h1v-1v-2V12L12,12z" class="color37474f svgShape"></path>
  </g>
  <g fill="#000000" class="color000000 svgShape">
    <path fill="#434343" d="M5,9v45h10.184l0.5-1H6V19h52v34h-8v1h9V9H5z M58,18H6v-8h52V18z" class="color37474f svgShape"></path>
    <polygon fill="#434343" points="36.492 54 36.692 53 24.899 53 23.993 53.907 23.974 54" class="color37474f svgShape"></polygon>
  </g>
  <g fill="#000000" class="color000000 svgShape">
    <path fill="#ffc518" d="M48.081,50.97l-2.718-2.718c-0.231-0.232-0.68-0.367-1-0.303l-2.875,0.575L25.476,32.512l0.575-2.875
				c0.063-0.32-0.071-0.769-0.303-1l-2.718-2.718c-0.231-0.231-0.684-0.419-1.011-0.419h-2.963l2.963,2.963l-0.593,2.963
				l-2.963,0.593L15.5,29.056v2.963c0,0.328,0.188,0.78,0.419,1.011l2.718,2.718c0.231,0.232,0.68,0.367,1,0.303l2.875-0.575
				l16.012,16.012l-0.575,2.875c-0.063,0.32,0.071,0.769,0.303,1l2.718,2.718c0.231,0.231,0.684,0.419,1.011,0.419h2.963
				l-2.963-2.963l0.593-2.963l2.963-0.593l2.963,2.963v-2.963C48.5,51.654,48.313,51.202,48.081,50.97z" class="color18ffff svgShape"></path>
    <polygon fill="#ffffff" points="32 40.223 20.833 51.389 17.871 51.981 15.5 56.723 17.277 58.5 22.019 56.129 22.611 53.167 33.777 42" class="colorffffff svgShape"></polygon>
    <path fill="#434343" d="M17.179 59.108l-2.287-2.287 2.641-5.282 3.054-.61L32 39.516 34.484 42 23.071 53.414l-.61 3.054L17.179 59.108zM16.108 56.624l1.268 1.268 4.2-2.1.574-2.871L33.07 42 32 40.93 21.08 51.85l-2.871.574L16.108 56.624zM18.283 36.101c.342.344.969.536 1.452.44l2.613-.522 5.868 5.868.708-.708-6.246-6.246-3.21.634c-.188 0-.394-.089-.477-.172l-2.718-2.718C16.135 32.539 16 32.213 16 32.019v-1.756l2.298 2.299 3.552-.711.711-3.552L20.263 26h1.756c.194 0 .52.135.658.272l2.718 2.718c.113.113.197.39.166.548l-.628 3.138 4.468 4.468.708-.708-4.089-4.089.522-2.614c.096-.481-.094-1.105-.44-1.451l-2.718-2.718C23.056 25.238 22.482 25 22.019 25h-4.17l3.627 3.627-.475 2.374-2.374.475L15 27.849v4.17c0 .463.238 1.037.565 1.365L18.283 36.101zM45.717 47.899c-.342-.344-.97-.538-1.452-.44l-2.613.522-4.09-4.09-.708.708 4.468 4.468 3.21-.634c.188 0 .394.089.477.172l2.718 2.718C47.865 51.461 48 51.787 48 51.981v1.756l-2.298-2.299-3.552.711-.711 3.552L43.737 58h-1.756c-.194 0-.52-.135-.658-.272l-2.718-2.718c-.113-.113-.197-.39-.166-.548l.628-3.138-6.246-6.246-.708.708 5.868 5.868-.522 2.614c-.096.481.094 1.105.44 1.451l2.718 2.718C40.944 58.762 41.518 59 41.981 59h4.17l-3.627-3.627.475-2.374 2.374-.475L49 56.151v-4.17c0-.463-.238-1.037-.565-1.365L45.717 47.899z" class="color37474f svgShape"></path>
    <g fill="#000000" class="color000000 svgShape">
      <path fill="#ffffff" d="M47.671,26.634l-0.305-0.306c-1.388-1.388-3.64-1.388-5.028,0l-9.475,9.476
						c0.268,0.268,0.434,0.638,0.434,1.048c0,0.818-0.663,1.481-1.481,1.481c-0.409,0-0.78-0.165-1.048-0.434l-1.323,1.323
						l5.333,5.333l1.323-1.323c-0.269-0.268-0.434-0.639-0.434-1.048c0-0.818,0.663-1.481,1.481-1.481
						c0.41,0,0.78,0.166,1.048,0.434l9.475-9.476C49.06,30.274,49.06,28.022,47.671,26.634z" class="colorffffff svgShape"></path>
      <path fill="#ffd452" d="M38.651,40.975l9.166-9.167c0.577-0.577,0.895-1.344,0.895-2.16c0-0.816-0.318-1.583-0.895-2.161
						l-0.306-0.306c-1.153-1.154-3.166-1.154-4.32,0l-9.167,9.167c0.177,0.301,0.271,0.645,0.271,1.003
						c0,1.092-0.889,1.981-1.981,1.981c-0.359,0-0.703-0.094-1.003-0.271l-0.661,0.661l4.626,4.626l0.661-0.661
						c-0.177-0.3-0.271-0.644-0.271-1.003c0-1.093,0.889-1.981,1.981-1.981C38.006,40.704,38.351,40.798,38.651,40.975z" class="colorff5252 svgShape"></path>
      <path fill="#434343" d="M34.777,45.263l-6.04-6.04l2.03-2.031l0.354,0.354c0.185,0.185,0.431,0.287,0.694,0.287
						c0.541,0,0.981-0.44,0.981-0.981c0-0.262-0.102-0.509-0.288-0.695l-0.353-0.354l9.828-9.829
						c0.766-0.766,1.784-1.188,2.868-1.188c1.083,0,2.102,0.422,2.867,1.188l0.306,0.306c0.766,0.766,1.188,1.784,1.188,2.868
						c0,1.083-0.422,2.102-1.188,2.867l-9.829,9.83l-0.354-0.354c-0.185-0.185-0.431-0.287-0.694-0.287
						c-0.541,0-0.981,0.44-0.981,0.981c0,0.263,0.102,0.509,0.287,0.694l0.354,0.354L34.777,45.263z M30.151,39.223l4.626,4.626
						l0.661-0.661c-0.177-0.3-0.271-0.644-0.271-1.003c0-1.093,0.889-1.981,1.981-1.981c0.358,0,0.703,0.094,1.003,0.271
						l9.166-9.167c0.577-0.577,0.895-1.344,0.895-2.16c0-0.816-0.318-1.583-0.895-2.161l-0.306-0.306
						c-1.153-1.154-3.166-1.154-4.32,0l-9.167,9.167c0.177,0.301,0.271,0.645,0.271,1.003c0,1.092-0.889,1.981-1.981,1.981
						c-0.359,0-0.703-0.094-1.003-0.271L30.151,39.223z" class="color37474f svgShape"></path>
    </g>
    <g fill="#000000" class="color000000 svgShape">
      <path fill="#434343" d="M36 36.5c-.128 0-.256-.049-.354-.146-.195-.195-.195-.512 0-.707l8-8c.195-.195.512-.195.707 0s.195.512 0 .707l-8 8C36.256 36.451 36.128 36.5 36 36.5zM38 38.5c-.128 0-.256-.049-.354-.146-.195-.195-.195-.512 0-.707l8-8c.195-.195.512-.195.707 0s.195.512 0 .707l-8 8C38.256 38.451 38.128 38.5 38 38.5z" class="color37474f svgShape"></path>
    </g>
  </g>
</svg>
